<svg xmlns="http://www.w3.org/2000/svg" xmlns:xlink="http://www.w3.org/1999/xlink" width="1000" zoomAndPan="magnify" viewBox="0 0 750 155.999997" height="208" preserveAspectRatio="xMidYMid meet" version="1.0"><defs><g/><clipPath id="0fb8b51c24"><path d="M 240 0 L 741 0 L 741 156 L 240 156 Z M 240 0 " clip-rule="nonzero"/></clipPath><clipPath id="3026c1875e"><path d="M 344.683594 0 L 728.957031 0 C 733.257812 0 737.226562 2.304688 739.355469 6.042969 C 741.488281 9.777344 741.449219 14.371094 739.257812 18.070312 L 668.277344 137.929688 C 661.644531 149.132812 649.59375 156 636.578125 156 L 252.304688 156 C 248.003906 156 244.035156 153.695312 241.90625 149.957031 C 239.777344 146.222656 239.8125 141.628906 242.003906 137.929688 L 312.984375 18.070312 C 319.617188 6.867188 331.667969 0 344.683594 0 Z M 344.683594 0 " clip-rule="nonzero"/></clipPath></defs><g clip-path="url(#0fb8b51c24)"><g clip-path="url(#3026c1875e)"><path fill="#000000" d="M 231.304688 0 L 749.957031 0 L 749.957031 156 L 231.304688 156 Z M 231.304688 0 " fill-opacity="1" fill-rule="nonzero"/></g></g><g fill="#000000" fill-opacity="1"><g transform="translate(15.600006, 125.06764)"><g><path d="M 8.359375 -83.671875 L 47.9375 -83.671875 C 57.332031 -83.671875 64.800781 -81.773438 70.34375 -77.984375 C 75.882812 -74.203125 78.65625 -69.125 78.65625 -62.75 C 78.65625 -58.363281 77.378906 -54.519531 74.828125 -51.21875 C 72.273438 -47.914062 68.769531 -45.625 64.3125 -44.34375 C 69.570312 -43.3125 73.753906 -40.878906 76.859375 -37.046875 C 79.960938 -33.222656 81.515625 -28.601562 81.515625 -23.1875 C 81.515625 -16.09375 78.625 -10.453125 72.84375 -6.265625 C 67.070312 -2.085938 59.242188 0 49.359375 0 L 8.359375 0 Z M 29.53125 -67.421875 L 29.53125 -50.203125 L 46.734375 -50.203125 C 49.835938 -50.203125 52.304688 -50.976562 54.140625 -52.53125 C 55.972656 -54.082031 56.890625 -56.210938 56.890625 -58.921875 C 56.890625 -61.554688 55.972656 -63.628906 54.140625 -65.140625 C 52.304688 -66.660156 49.835938 -67.421875 46.734375 -67.421875 Z M 29.53125 -34.90625 L 29.53125 -16.375 L 46.734375 -16.375 C 50.722656 -16.375 53.851562 -17.207031 56.125 -18.875 C 58.394531 -20.550781 59.53125 -22.863281 59.53125 -25.8125 C 59.53125 -28.601562 58.394531 -30.816406 56.125 -32.453125 C 53.851562 -34.085938 50.722656 -34.90625 46.734375 -34.90625 Z M 29.53125 -34.90625 "/></g></g></g><g fill="#000000" fill-opacity="1"><g transform="translate(94.246795, 125.06764)"><g><path d="M 72.3125 -66.578125 L 47.09375 -66.578125 L 47.09375 0 L 25.8125 0 L 25.8125 -66.578125 L 0.84375 -66.578125 L 0.84375 -83.796875 L 72.3125 -83.796875 Z M 72.3125 -66.578125 "/></g></g></g><g fill="#000000" fill-opacity="1"><g transform="translate(160.462992, 125.06764)"><g><path d="M 47.578125 -84.390625 C 53.785156 -84.390625 59.898438 -83.113281 65.921875 -80.5625 C 71.941406 -78.007812 77.0625 -74.582031 81.28125 -70.28125 L 68.96875 -55.703125 C 66.257812 -59.046875 63.007812 -61.691406 59.21875 -63.640625 C 55.4375 -65.597656 51.675781 -66.578125 47.9375 -66.578125 C 41.320312 -66.578125 35.78125 -64.242188 31.3125 -59.578125 C 26.851562 -54.921875 24.625 -49.164062 24.625 -42.3125 C 24.625 -35.300781 26.851562 -29.441406 31.3125 -24.734375 C 35.78125 -20.035156 41.320312 -17.6875 47.9375 -17.6875 C 51.4375 -17.6875 55.078125 -18.5625 58.859375 -20.3125 C 62.648438 -22.070312 66.019531 -24.460938 68.96875 -27.484375 L 81.40625 -14.34375 C 76.863281 -9.71875 71.503906 -6.007812 65.328125 -3.21875 C 59.148438 -0.4375 52.992188 0.953125 46.859375 0.953125 C 34.265625 0.953125 23.785156 -3.148438 15.421875 -11.359375 C 7.054688 -19.566406 2.875 -29.804688 2.875 -42.078125 C 2.875 -54.109375 7.132812 -64.164062 15.65625 -72.25 C 24.1875 -80.34375 34.828125 -84.390625 47.578125 -84.390625 Z M 47.578125 -84.390625 "/></g></g></g><g fill="#ffffff" fill-opacity="1"><g transform="translate(332.586637, 125.406427)"><g><path d="M 85.578125 0 L 66.8125 0 L 28.328125 -51.515625 L 28.328125 0 L 8.359375 0 L 8.359375 -83.671875 L 27.140625 -83.671875 L 65.734375 -32.03125 L 65.734375 -83.671875 L 85.578125 -83.671875 Z M 85.578125 0 "/></g></g></g><g fill="#ffffff" fill-opacity="1"><g transform="translate(419.717803, 125.406427)"><g><path d="M 73.875 -66.9375 L 29.640625 -66.9375 L 29.640625 -50.328125 L 69.5625 -50.328125 L 69.5625 -33.59375 L 29.640625 -33.59375 L 29.640625 -16.734375 L 75.1875 -16.734375 L 75.1875 0 L 8.359375 0 L 8.359375 -83.671875 L 73.875 -83.671875 Z M 73.875 -66.9375 "/></g></g></g><g fill="#ffcc00" fill-opacity="1"><g transform="translate(493.47001, 125.406427)"><g><path d="M 56.890625 -43.75 L 86.90625 0 L 61.4375 0 L 43.390625 -26.65625 L 25.34375 0 L 0.59375 0 L 30.484375 -42.796875 L 2.515625 -83.671875 L 27.25 -83.671875 L 43.390625 -59.28125 L 59.53125 -83.671875 L 84.515625 -83.671875 Z M 56.890625 -43.75 "/></g></g></g><g fill="#ffffff" fill-opacity="1"><g transform="translate(574.386677, 125.406427)"><g><path d="M 72.3125 -66.578125 L 47.09375 -66.578125 L 47.09375 0 L 25.8125 0 L 25.8125 -66.578125 L 0.84375 -66.578125 L 0.84375 -83.796875 L 72.3125 -83.796875 Z M 72.3125 -66.578125 "/></g></g></g></svg>