<svg width="20" height="20" viewBox="0 0 20 20" fill="none" xmlns="http://www.w3.org/2000/svg">
<g id="Group 4827">
<path id="&#229;&#189;&#162;&#231;&#138;&#182;" d="M7.31637 3.21666L7.47309 3.4085C4.65674 4.23925 3.35736 5.50212 3.35736 5.50212C3.35736 5.50212 3.70274 5.30889 4.28092 5.03806C5.9546 4.28642 7.28594 4.07949 7.83369 4.03081C7.9265 4.01559 8.00562 3.99885 8.09996 3.99885C9.14819 3.85997 10.2095 3.84975 11.2602 3.96842C12.9166 4.16217 14.5179 4.68352 15.9708 5.50212C15.9708 5.50212 14.7353 4.30316 12.0742 3.4724L12.2933 3.21666L12.3758 3.21757C12.7898 3.22938 14.6985 3.36853 16.6905 4.89351C16.6905 4.89351 18.9454 9.06402 18.9454 14.2083C18.9454 14.2083 17.6141 16.5256 14.1556 16.6367C14.1556 16.6367 13.5927 15.9504 13.1225 15.3434C15.1735 14.7515 15.9556 13.4415 15.9556 13.4415C15.3135 13.872 14.7034 14.1763 14.1556 14.3848C13.4289 14.7014 12.6675 14.9317 11.887 15.071C10.5472 15.3232 9.1716 15.318 7.83369 15.0558C6.94055 14.8793 6.1737 14.6237 5.53162 14.3681C5.17254 14.2235 4.78151 14.0485 4.39047 13.8249L4.24897 13.7442C4.21702 13.729 4.2018 13.7123 4.18659 13.6971C3.90511 13.5373 3.74991 13.4247 3.74991 13.4247C3.74991 13.4247 4.50002 14.7028 6.48866 15.3114C6.01699 15.9185 5.43881 16.6367 5.43881 16.6367C2.47443 16.5402 1.08512 14.825 0.748675 14.3369L0.686196 14.2421C0.672479 14.2201 0.665771 14.2083 0.665771 14.2083C0.665771 9.06402 2.91915 4.89503 2.91915 4.89503C4.91253 3.36871 6.82018 3.2294 7.23387 3.21758L7.31637 3.21666ZM6.78384 9.4657C5.8694 9.4657 5.14667 10.1504 5.14667 10.9872C5.14667 11.8241 5.88614 12.5088 6.78384 12.5088C7.69828 12.5088 8.41948 11.8241 8.41948 10.9872C8.43622 10.1504 7.69675 9.4657 6.78384 9.4657ZM12.6387 9.4657C11.7242 9.4657 11.003 10.1504 11.003 10.9872C11.003 11.8241 11.741 12.5088 12.6387 12.5088C13.5531 12.5088 14.2758 11.8241 14.2758 10.9872C14.2758 10.1504 13.5531 9.4657 12.6387 9.4657Z" fill="#6F7991"/>
</g>
</svg>
