<svg width="20" height="20" viewBox="0 0 20 20" fill="none" xmlns="http://www.w3.org/2000/svg">
<g id="GitHub">
<g id="&#233;&#161;&#181;&#233;&#157;&#162;-1">
<g id="home-&#228;&#184;&#147;&#233;&#162;&#152;&#229;&#164;&#135;&#228;&#187;&#189;-2">
<g id="github">
<path id="Fill-1" fill-rule="evenodd" clip-rule="evenodd" d="M10.0016 1.72037C5.1771 1.71847 1.26953 5.62403 1.26953 10.4448C1.26953 14.2567 3.71394 17.4972 7.11828 18.6872C7.57676 18.8023 7.50655 18.4765 7.50655 18.2541V16.7422C4.85913 17.0523 4.75188 15.3004 4.57433 15.0078C4.21539 14.3953 3.36673 14.2391 3.6203 13.9465C4.22319 13.6364 4.83769 14.0245 5.54977 15.0761C6.06482 15.8389 7.0695 15.7101 7.57866 15.5833C7.68991 15.1249 7.92787 14.7152 8.25564 14.3972C5.5127 13.9056 4.36951 12.2317 4.36951 10.2418C4.36951 9.27613 4.68748 8.3885 5.31181 7.67246C4.9138 6.49222 5.34885 5.48162 5.40735 5.3314C6.54081 5.23005 7.71915 6.14299 7.81079 6.2152C8.45465 6.04154 9.19014 5.9499 10.0134 5.9499C10.8406 5.9499 11.578 6.04545 12.2276 6.22103C12.448 6.05327 13.5406 5.269 14.594 5.36464C14.6506 5.51488 15.0759 6.50193 14.7014 7.66665C15.3334 8.3846 15.6554 9.28003 15.6554 10.2477C15.6554 12.2415 14.5043 13.9173 11.7536 14.4011C12.212 14.8537 12.4968 15.4819 12.4968 16.1764V18.3712C12.5124 18.5467 12.4968 18.7204 12.7894 18.7204C16.2445 17.5556 18.7318 14.2918 18.7318 10.4467C18.7318 5.62403 14.8224 1.72037 10.0016 1.72037Z" fill="#6F7991"/>
</g>
</g>
</g>
</g>
</svg>
