<svg width="20" height="20" viewBox="0 0 20 20" fill="none" xmlns="http://www.w3.org/2000/svg">
<g id="Group 4826">
<g id="&#232;&#183;&#175;&#229;&#190;&#132;">
<path id="Vector" d="M9.9999 10C14.121 10 17.4617 10 17.4617 10C17.4617 10 14.121 10 9.9999 10C5.87885 10 2.53809 10 2.53809 10C2.53809 10 5.87885 10 9.9999 10Z" stroke="#4D5569" stroke-width="1.2" stroke-linecap="round" stroke-linejoin="round"/>
<path id="Vector_2" d="M13.1103 9.99847C13.1103 14.2912 11.7183 17.7712 10.0012 17.7712C8.28407 17.7712 6.89209 14.2912 6.89209 9.99847C6.89209 5.70571 8.28407 2.22574 10.0012 2.22574C11.7183 2.22574 13.1103 5.70571 13.1103 9.99847Z" stroke="#4D5569" stroke-width="1.2" stroke-linecap="round" stroke-linejoin="round"/>
<path id="Vector_3" d="M10.0012 17.7712C14.294 17.7712 17.774 14.2912 17.774 9.99847C17.774 5.70571 14.294 2.22574 10.0012 2.22574C5.70848 2.22574 2.22852 5.70571 2.22852 9.99847C2.22852 14.2912 5.70848 17.7712 10.0012 17.7712Z" stroke="#4D5569" stroke-width="1.2" stroke-linejoin="round"/>
</g>
</g>
</svg>
