<svg width="134" height="26" viewBox="0 0 134 26" fill="none" xmlns="http://www.w3.org/2000/svg">
<g id="Group 4830">
<path id="BTCNEXT" d="M38.36 19V4.88H44.42C47.14 4.88 48.68 6.54 48.68 8.58C48.68 9.84 48.08 10.84 46.94 11.46C48.38 12.16 49.16 13.36 49.16 14.9C49.16 17.22 47.36 19 44.38 19H38.36ZM43.82 7.32H41.46V10.46H43.82C44.84 10.46 45.56 9.94 45.56 8.88C45.56 7.84 44.86 7.32 43.82 7.32ZM44.08 12.84H41.46V16.56H44.08C45.3 16.56 46.04 15.76 46.04 14.7C46.04 13.64 45.3 12.84 44.08 12.84ZM55.12 19V7.62H50.7V4.88H62.68V7.62H58.26V19H55.12ZM71.1913 19.22C66.9713 19.22 63.7713 16.06 63.7713 11.92C63.7713 7.8 66.9513 4.66 71.1713 4.66C73.4113 4.66 75.1313 5.42 76.4513 6.68L74.3513 8.8C73.6113 8 72.5513 7.52 71.1713 7.52C68.7113 7.52 66.9913 9.28 66.9913 11.92C66.9913 14.6 68.7113 16.36 71.1713 16.36C72.6113 16.36 73.6513 15.88 74.4313 15.08L76.5513 17.2C75.1913 18.46 73.4913 19.22 71.1913 19.22ZM79.0803 19V4.88H81.2803L87.9803 13.46V4.88H91.1203V19H88.8203L82.2203 10.54V19H79.0803ZM94.6459 19V4.88H104.686V7.58H97.7859V10.48H104.086V13.1H97.7859V16.28H104.786V19H94.6459ZM106.691 19L111.711 11.74L106.951 4.88H110.691L113.651 9.42L116.571 4.88H120.151L115.511 11.66L120.391 19H116.711L113.551 13.98L110.271 19H106.691ZM125.487 19V7.62H121.067V4.88H133.047V7.62H128.627V19H125.487Z" fill="#161F35"/>
<g id="Group 4829">
<circle id="Ellipse 1" cx="23" cy="23" r="3" fill="#FFDF3A"/>
<circle id="Ellipse 2" cx="11" cy="11" r="8" stroke="#FFDF3A" stroke-width="6"/>
</g>
</g>
</svg>
