<svg xmlns="http://www.w3.org/2000/svg" xmlns:xlink="http://www.w3.org/1999/xlink" width="300" zoomAndPan="magnify" viewBox="0 0 224.87999 74.999997" height="100" preserveAspectRatio="xMidYMid meet" version="1.0"><defs><g/><clipPath id="6cb650a7f0"><path d="M 0 3 L 70 3 L 70 73 L 0 73 Z M 0 3 " clip-rule="nonzero"/></clipPath><clipPath id="05a9f62b18"><path d="M 9.015625 -3.410156 L 76.542969 11.519531 L 61.613281 79.046875 L -5.914062 64.117188 Z M 9.015625 -3.410156 " clip-rule="nonzero"/></clipPath><clipPath id="d6aa549f8e"><path d="M 42.777344 4.054688 C 24.132812 -0.0664062 5.671875 11.707031 1.550781 30.351562 C -2.574219 49 9.203125 67.457031 27.847656 71.582031 C 46.496094 75.703125 64.953125 63.929688 69.078125 45.285156 C 73.199219 26.636719 61.425781 8.179688 42.777344 4.054688 Z M 42.777344 4.054688 " clip-rule="nonzero"/></clipPath><clipPath id="8facf75c85"><path d="M 2 4 L 68 4 L 68 71 L 2 71 Z M 2 4 " clip-rule="nonzero"/></clipPath><clipPath id="88c610f375"><path d="M 68.921875 69.644531 L 4.167969 71.972656 L 1.792969 5.90625 L 66.546875 3.578125 Z M 68.921875 69.644531 " clip-rule="nonzero"/></clipPath><clipPath id="c9aca7076d"><path d="M 68.921875 69.644531 L 4.167969 71.972656 L 1.792969 5.90625 L 66.546875 3.578125 Z M 68.921875 69.644531 " clip-rule="nonzero"/></clipPath><clipPath id="d938acc58c"><path d="M 4 7 L 66 7 L 66 69 L 4 69 Z M 4 7 " clip-rule="nonzero"/></clipPath><clipPath id="d992cdcab8"><path d="M 1.355469 64.539062 L 8.589844 3.855469 L 69.273438 11.089844 L 62.039062 71.773438 Z M 1.355469 64.539062 " clip-rule="nonzero"/></clipPath><clipPath id="e1f2dfd9cf"><path d="M 4.972656 34.199219 C 2.972656 50.957031 14.941406 66.160156 31.695312 68.15625 C 48.453125 70.15625 63.65625 58.191406 65.65625 41.433594 C 67.652344 24.675781 55.6875 9.472656 38.929688 7.472656 C 22.171875 5.476562 6.96875 17.441406 4.972656 34.199219 Z M 4.972656 34.199219 " clip-rule="nonzero"/></clipPath></defs><g fill="#ffffff" fill-opacity="1"><g transform="translate(78.838345, 52.157134)"><g><path d="M 7.242188 0.046875 L 7.9375 0 L 8.078125 0 L 8.449219 -0.046875 L 9.097656 -0.046875 L 9.46875 0 L 10.074219 0.046875 L 11.328125 0 L 11.652344 -0.046875 L 11.976562 0 L 12.671875 0.046875 L 13.371094 -0.09375 L 13.648438 -0.046875 L 14.25 -0.1875 L 14.667969 -0.230469 L 14.949219 -0.277344 L 15.320312 -0.417969 L 15.832031 -0.558594 L 16.203125 -0.742188 L 16.527344 -0.882812 L 16.757812 -1.019531 L 16.992188 -1.207031 L 17.316406 -1.394531 L 17.546875 -1.625 L 17.828125 -1.765625 L 18.199219 -1.996094 L 18.382812 -2.226562 L 18.707031 -2.507812 L 18.941406 -2.738281 L 19.21875 -3.25 L 19.636719 -3.808594 L 20.378906 -5.292969 L 20.472656 -5.617188 L 20.566406 -5.894531 L 20.65625 -6.21875 L 20.75 -6.5 L 20.890625 -7.148438 L 20.9375 -7.472656 L 21.074219 -8.078125 L 21.214844 -8.773438 L 21.308594 -9.46875 L 21.355469 -9.796875 L 21.355469 -10.398438 L 21.402344 -10.816406 L 21.308594 -11.28125 L 21.355469 -11.882812 L 21.167969 -12.488281 L 21.074219 -13.089844 L 20.9375 -13.371094 L 20.84375 -13.832031 L 20.613281 -14.34375 L 20.425781 -14.667969 L 20.148438 -15.132812 L 19.867188 -15.414062 L 19.589844 -15.738281 L 19.035156 -16.109375 L 18.617188 -16.292969 L 18.105469 -16.574219 L 17.640625 -16.757812 L 17.640625 -17.039062 L 18.058594 -17.222656 L 18.617188 -17.453125 L 19.171875 -17.78125 L 19.496094 -17.964844 L 19.730469 -18.152344 L 19.960938 -18.429688 L 20.195312 -18.617188 L 20.796875 -19.21875 L 21.167969 -19.777344 L 21.492188 -20.242188 L 21.820312 -20.75 L 22.003906 -21.167969 L 22.144531 -21.449219 L 22.238281 -21.773438 L 22.328125 -22.050781 L 22.375 -22.375 L 22.421875 -22.515625 L 22.515625 -22.839844 L 22.46875 -23.117188 L 22.652344 -23.722656 L 22.699219 -24.046875 L 22.792969 -24.652344 L 22.792969 -24.929688 L 22.886719 -25.253906 L 22.933594 -25.53125 L 22.933594 -25.859375 L 22.980469 -26.136719 L 23.027344 -26.832031 L 22.933594 -27.390625 L 22.839844 -27.761719 L 22.839844 -28.085938 L 22.792969 -28.457031 L 22.515625 -29.105469 L 22.328125 -29.664062 L 22.191406 -29.894531 L 22.003906 -30.175781 L 21.585938 -30.546875 L 20.984375 -31.195312 L 20.472656 -31.613281 L 20.054688 -31.800781 L 19.589844 -32.03125 L 19.035156 -32.171875 L 18.335938 -32.355469 L 17.871094 -32.402344 L 17.363281 -32.496094 L 15.96875 -32.496094 L 15.320312 -32.542969 L 13.460938 -32.496094 L 11.1875 -32.589844 L 10.214844 -32.589844 L 9.703125 -32.542969 L 9.421875 -32.589844 L 8.261719 -32.589844 L 7.613281 -32.542969 L 7.195312 -32.171875 L 7.054688 -31.9375 L 6.964844 -31.519531 L 6.917969 -30.824219 L 6.871094 -30.5 L 6.871094 -30.128906 L 6.730469 -29.523438 L 6.453125 -28.410156 L 6.3125 -27.808594 L 6.175781 -27.109375 L 6.082031 -25.625 L 5.894531 -24.976562 L 5.804688 -24.277344 L 5.757812 -24 L 5.664062 -23.722656 L 5.664062 -23.398438 L 5.617188 -23.117188 L 5.570312 -22.699219 L 5.429688 -22.328125 L 5.386719 -22.050781 L 5.292969 -21.726562 L 5.246094 -21.167969 L 5.199219 -20.75 L 5.058594 -20.332031 L 4.96875 -20.007812 L 4.921875 -19.683594 L 4.921875 -19.3125 L 4.828125 -18.660156 L 4.640625 -18.011719 L 4.597656 -17.640625 L 4.410156 -17.039062 L 4.316406 -16.804688 L 4.269531 -16.15625 L 4.085938 -15.503906 L 3.992188 -15.039062 L 3.945312 -14.855469 L 3.945312 -14.578125 L 3.808594 -14.019531 L 3.761719 -13.695312 L 3.667969 -13.089844 L 3.527344 -12.488281 L 3.527344 -12.164062 L 3.480469 -11.882812 L 3.390625 -11.511719 L 3.25 -11.140625 L 3.109375 -10.492188 L 3.15625 -10.027344 L 2.972656 -9.5625 L 2.878906 -8.820312 L 2.785156 -8.125 L 2.738281 -7.84375 L 2.601562 -7.472656 L 2.554688 -7.101562 L 2.460938 -6.777344 L 2.414062 -6.453125 L 2.320312 -6.175781 L 2.273438 -5.523438 L 2.183594 -4.875 L 1.996094 -4.269531 L 1.949219 -3.945312 L 1.855469 -3.390625 L 1.765625 -2.738281 L 1.671875 -2.320312 L 1.53125 -1.949219 L 1.53125 -1.253906 L 1.4375 -0.789062 L 1.394531 -0.417969 L 1.71875 -0.140625 L 2.136719 -0.09375 L 2.832031 -0.046875 L 3.203125 -0.046875 L 3.480469 0 L 5.386719 0 L 6.128906 -0.046875 L 6.5 -0.046875 Z M 12.488281 -20.148438 L 11.929688 -20.195312 L 11.328125 -20.195312 L 11.328125 -20.472656 L 11.375 -20.9375 L 11.464844 -21.308594 L 11.792969 -23.582031 L 11.882812 -23.859375 L 11.929688 -24.1875 L 12.070312 -24.789062 L 12.070312 -25.113281 L 12.210938 -25.671875 L 12.253906 -25.996094 L 12.300781 -26.414062 L 12.441406 -26.832031 L 12.441406 -27.15625 L 12.8125 -27.25 L 13.972656 -27.25 L 14.808594 -27.15625 L 15.226562 -27.0625 L 15.503906 -27.019531 L 15.875 -26.691406 L 16.015625 -26.460938 L 16.292969 -25.902344 L 16.339844 -25.347656 L 16.386719 -25.023438 L 16.433594 -24.511719 L 16.246094 -24.046875 L 16.203125 -23.675781 L 16.109375 -23.398438 L 15.96875 -22.839844 L 15.738281 -22.191406 L 15.367188 -21.726562 L 15.132812 -21.308594 L 14.578125 -20.84375 L 14.066406 -20.519531 L 13.695312 -20.285156 L 13.136719 -20.195312 Z M 9.515625 -5.941406 L 8.773438 -5.988281 L 8.960938 -6.59375 L 9.007812 -6.964844 L 9.097656 -7.335938 L 9.191406 -7.984375 L 9.191406 -8.308594 L 9.332031 -9.007812 L 9.421875 -9.332031 L 9.515625 -9.980469 L 9.5625 -10.351562 L 9.65625 -10.628906 L 9.65625 -10.957031 L 9.75 -11.28125 L 9.839844 -11.976562 L 9.933594 -12.164062 L 10.027344 -12.535156 L 10.121094 -13.371094 L 10.257812 -13.789062 L 10.910156 -13.789062 L 11.421875 -13.742188 L 12.070312 -13.742188 L 12.441406 -13.648438 L 12.90625 -13.554688 L 13.789062 -13.230469 L 14.296875 -12.765625 L 14.714844 -11.652344 L 14.667969 -11.046875 L 14.714844 -10.257812 L 14.625 -9.421875 L 14.390625 -8.820312 L 14.34375 -8.449219 L 14.25 -8.125 L 14.019531 -7.613281 L 13.972656 -7.242188 L 13.695312 -6.824219 L 13.371094 -6.546875 L 12.953125 -6.21875 L 12.628906 -6.082031 L 12.300781 -6.082031 L 11.976562 -5.941406 L 11.09375 -5.941406 L 9.933594 -6.082031 Z M 9.515625 -5.941406 "/></g></g></g><g fill="#ffffff" fill-opacity="1"><g transform="translate(100.932595, 52.157134)"><g><path d="M 5.757812 0.140625 L 6.3125 0 L 10.351562 0 L 10.910156 -0.230469 L 11.003906 -0.511719 L 11.140625 -1.160156 L 11.234375 -1.808594 L 11.511719 -3.109375 L 11.746094 -4.132812 L 11.699219 -4.503906 L 11.835938 -5.152344 L 11.929688 -5.523438 L 12.164062 -6.5 L 12.300781 -7.101562 L 12.347656 -7.425781 L 12.535156 -8.03125 L 12.671875 -8.773438 L 12.8125 -9.421875 L 12.765625 -9.75 L 12.8125 -10.027344 L 12.859375 -10.351562 L 13.042969 -10.910156 L 13.089844 -11.234375 L 13.183594 -11.511719 L 13.230469 -11.792969 L 13.230469 -12.253906 L 13.324219 -12.671875 L 13.460938 -13.371094 L 13.601562 -14.019531 L 13.601562 -14.296875 L 13.695312 -14.578125 L 13.742188 -15.226562 L 13.925781 -15.550781 L 14.066406 -16.109375 L 14.113281 -16.710938 L 14.113281 -17.039062 L 14.25 -17.316406 L 14.390625 -17.964844 L 14.484375 -18.289062 L 14.578125 -18.988281 L 14.808594 -19.542969 L 14.808594 -19.867188 L 14.855469 -20.148438 L 14.902344 -20.703125 L 14.902344 -20.984375 L 15.085938 -21.585938 L 15.320312 -22.238281 L 15.226562 -22.46875 L 15.414062 -22.839844 L 15.597656 -23.675781 L 15.644531 -24 L 15.738281 -24.605469 L 15.832031 -24.882812 L 15.832031 -25.160156 L 15.96875 -25.484375 L 15.921875 -25.765625 L 16.015625 -26.089844 L 16.433594 -26.136719 L 18.382812 -26.089844 L 18.847656 -26.089844 L 19.265625 -26.136719 L 19.824219 -26.136719 L 20.242188 -26.089844 L 20.703125 -26.136719 L 20.890625 -26.554688 L 20.9375 -27.203125 L 21.03125 -27.527344 L 21.214844 -28.132812 L 21.261719 -28.6875 L 21.308594 -28.96875 L 21.402344 -29.292969 L 21.492188 -29.851562 L 21.492188 -30.128906 L 21.585938 -30.453125 L 21.632812 -30.730469 L 21.632812 -31.058594 L 21.726562 -31.429688 L 21.773438 -31.753906 L 21.773438 -32.03125 L 21.679688 -32.402344 L 21.261719 -32.496094 L 20.613281 -32.542969 L 17.734375 -32.542969 L 17.316406 -32.589844 L 16.339844 -32.542969 L 15.644531 -32.589844 L 12.671875 -32.542969 L 11.652344 -32.542969 L 11.328125 -32.589844 L 7.890625 -32.589844 L 7.566406 -32.542969 L 7.242188 -32.542969 L 7.011719 -32.589844 L 5.804688 -32.589844 L 5.476562 -32.542969 L 5.058594 -32.21875 L 4.828125 -31.707031 L 4.78125 -31.429688 L 4.78125 -30.777344 L 4.640625 -30.5 L 4.457031 -29.894531 L 4.410156 -29.246094 L 4.316406 -28.96875 L 4.132812 -28.316406 L 4.179688 -27.992188 L 4.179688 -27.621094 L 4.039062 -27.25 L 3.945312 -26.691406 L 4.085938 -26.273438 L 4.503906 -26.136719 L 4.875 -26.136719 L 5.339844 -26.089844 L 5.757812 -26.089844 L 6.082031 -26.136719 L 6.730469 -26.089844 L 9.238281 -26.089844 L 9.191406 -25.347656 L 9.097656 -24.652344 L 9.007812 -24.324219 L 8.867188 -23.722656 L 8.867188 -23.445312 L 8.820312 -23.117188 L 8.820312 -22.839844 L 8.773438 -22.5625 L 8.542969 -21.820312 L 8.449219 -21.492188 L 8.402344 -21.167969 L 8.402344 -20.796875 L 8.308594 -20.566406 L 8.308594 -20.101562 L 8.078125 -19.589844 L 8.125 -19.265625 L 7.984375 -18.570312 L 7.890625 -18.289062 L 7.890625 -17.964844 L 7.707031 -17.6875 L 7.613281 -17.363281 L 7.613281 -16.945312 L 7.472656 -16.480469 L 7.472656 -15.832031 L 7.382812 -15.550781 L 7.148438 -14.996094 L 7.242188 -14.667969 L 7.148438 -14.34375 L 6.964844 -13.648438 L 6.730469 -13 L 6.636719 -12.671875 L 6.59375 -12.347656 L 6.683594 -11.882812 L 6.453125 -11.421875 L 6.40625 -10.769531 L 6.3125 -10.492188 L 6.21875 -9.886719 L 6.175781 -9.5625 L 6.082031 -9.238281 L 5.941406 -8.542969 L 5.804688 -7.984375 L 5.804688 -7.613281 L 5.570312 -6.636719 L 5.617188 -6.265625 L 5.570312 -5.941406 L 5.339844 -5.292969 L 5.339844 -4.96875 L 5.292969 -4.316406 L 5.199219 -4.039062 L 5.152344 -3.34375 L 5.058594 -3.015625 L 4.734375 -2.042969 L 4.6875 -1.066406 L 4.597656 -0.371094 L 5.011719 0 L 5.339844 0 Z M 5.757812 0.140625 "/></g></g></g><g fill="#ffffff" fill-opacity="1"><g transform="translate(118.802933, 52.157134)"><g><path d="M 10.167969 0.558594 L 10.628906 0.464844 L 11.234375 0.417969 L 11.929688 0.417969 L 12.535156 0.277344 L 13.089844 0.1875 L 13.648438 0.046875 L 14.855469 -0.230469 L 15.179688 -0.371094 L 15.921875 -0.835938 L 16.621094 -1.4375 L 17.316406 -2.273438 L 17.410156 -2.554688 L 17.546875 -2.832031 L 17.78125 -3.109375 L 17.964844 -3.390625 L 18.105469 -3.714844 L 18.335938 -4.269531 L 18.617188 -5.011719 L 18.753906 -5.292969 L 18.847656 -5.617188 L 18.894531 -5.941406 L 19.035156 -6.5 L 19.3125 -7.660156 L 19.40625 -7.9375 L 19.542969 -8.914062 L 19.589844 -9.097656 L 19.636719 -9.421875 L 19.730469 -9.65625 L 19.777344 -10.167969 L 19.867188 -10.769531 L 19.867188 -11.09375 L 19.960938 -11.375 L 19.960938 -11.882812 L 19.777344 -12.210938 L 19.449219 -12.535156 L 18.894531 -12.582031 L 16.621094 -12.71875 L 15.644531 -12.71875 L 14.4375 -12.765625 L 14.066406 -12.71875 L 13.742188 -12.347656 L 13.648438 -11.882812 L 13.417969 -11.28125 L 13.371094 -10.957031 L 13.277344 -10.539062 L 13.136719 -9.839844 L 13 -9.285156 L 12.953125 -9.050781 L 12.90625 -8.773438 L 12.71875 -8.171875 L 12.488281 -7.519531 L 12.117188 -6.683594 L 11.929688 -6.453125 L 11.28125 -6.035156 L 10.585938 -6.035156 L 9.839844 -5.941406 L 9.144531 -6.175781 L 8.773438 -6.5 L 8.589844 -7.195312 L 8.589844 -7.519531 L 8.542969 -7.800781 L 8.542969 -8.261719 L 8.589844 -8.914062 L 8.726562 -9.5625 L 8.726562 -9.933594 L 8.867188 -10.910156 L 8.820312 -11.234375 L 8.914062 -11.558594 L 8.960938 -11.882812 L 8.960938 -12.253906 L 9.007812 -12.582031 L 9.144531 -12.90625 L 9.144531 -13.878906 L 9.285156 -14.578125 L 9.378906 -14.949219 L 9.46875 -15.550781 L 9.515625 -15.875 L 9.703125 -16.621094 L 9.75 -16.992188 L 10.121094 -18.847656 L 10.351562 -19.542969 L 10.445312 -20.195312 L 10.539062 -20.519531 L 10.585938 -20.796875 L 10.628906 -21.121094 L 10.769531 -21.539062 L 10.910156 -22.097656 L 11.046875 -22.792969 L 11.234375 -23.351562 L 11.234375 -23.628906 L 11.511719 -24.417969 L 11.746094 -25.023438 L 11.929688 -25.8125 L 12.070312 -26.136719 L 12.210938 -26.414062 L 12.628906 -26.925781 L 13.136719 -27.109375 L 13.695312 -27.203125 L 14.207031 -27.203125 L 14.855469 -27.019531 L 15.367188 -26.738281 L 15.644531 -25.902344 L 15.644531 -25.207031 L 15.550781 -24.558594 L 15.503906 -23.953125 L 15.226562 -22.933594 L 15.132812 -22.28125 L 14.949219 -21.449219 L 14.855469 -21.121094 L 14.855469 -20.472656 L 15.179688 -19.960938 L 16.527344 -19.777344 L 19.449219 -19.730469 L 20.101562 -19.777344 L 20.65625 -19.824219 L 20.84375 -20.007812 L 21.074219 -21.214844 L 21.167969 -21.585938 L 21.449219 -23.398438 L 21.539062 -24.140625 L 21.632812 -24.835938 L 21.726562 -25.207031 L 21.773438 -25.671875 L 21.773438 -26.691406 L 21.726562 -27.390625 L 21.679688 -27.808594 L 21.632812 -28.410156 L 21.585938 -28.96875 L 21.492188 -29.476562 L 21.261719 -29.941406 L 21.167969 -30.269531 L 21.03125 -30.5 L 20.796875 -30.917969 L 20.703125 -31.148438 L 20.195312 -31.613281 L 19.589844 -32.078125 L 18.941406 -32.308594 L 18.429688 -32.402344 L 18.242188 -32.542969 L 17.917969 -32.589844 L 17.59375 -32.679688 L 17.316406 -32.726562 L 16.664062 -32.820312 L 16.203125 -32.820312 L 15.785156 -32.960938 L 14.625 -33.097656 L 13.878906 -33.097656 L 13 -33.054688 L 12.300781 -33.054688 L 11.976562 -33.007812 L 11.375 -32.867188 L 10.585938 -32.726562 L 9.609375 -32.308594 L 9.332031 -32.171875 L 8.726562 -31.890625 L 8.449219 -31.660156 L 7.800781 -31.011719 L 7.425781 -30.546875 L 7.101562 -30.082031 L 6.777344 -29.804688 L 6.59375 -29.292969 L 6.3125 -28.644531 L 6.082031 -28.085938 L 5.804688 -27.296875 L 5.617188 -26.648438 L 5.339844 -25.71875 L 5.011719 -24.789062 L 4.875 -24.1875 L 4.734375 -23.859375 L 4.6875 -23.535156 L 4.640625 -23.257812 L 4.550781 -22.933594 L 4.503906 -22.609375 L 4.363281 -22.328125 L 4.316406 -21.863281 L 4.222656 -21.355469 L 4.132812 -21.03125 L 3.898438 -20.101562 L 3.898438 -19.449219 L 3.761719 -19.171875 L 3.761719 -18.894531 L 3.714844 -18.335938 L 3.574219 -17.871094 L 3.480469 -17.363281 L 3.34375 -16.851562 L 3.34375 -16.664062 L 3.296875 -16.527344 L 3.296875 -15.875 L 3.109375 -15.597656 L 2.972656 -14.761719 L 3.015625 -14.53125 L 2.878906 -14.019531 L 2.785156 -13.648438 L 2.832031 -13.230469 L 2.644531 -12.582031 L 2.554688 -11.605469 L 2.507812 -11.328125 L 2.507812 -11.003906 L 2.414062 -10.351562 L 2.367188 -9.703125 L 2.320312 -9.332031 L 2.273438 -8.355469 L 2.273438 -7.148438 L 2.226562 -6.824219 L 2.226562 -6.40625 L 2.273438 -6.035156 L 2.273438 -5.152344 L 2.367188 -4.828125 L 2.460938 -4.222656 L 2.554688 -3.945312 L 2.691406 -3.34375 L 3.109375 -2.738281 L 3.433594 -2.089844 L 3.667969 -1.855469 L 3.851562 -1.625 L 4.457031 -1.160156 L 4.734375 -0.976562 L 4.96875 -0.789062 L 5.429688 -0.511719 L 5.710938 -0.277344 L 6.265625 -0.09375 L 6.871094 0.140625 L 7.148438 0.1875 L 7.472656 0.277344 L 7.9375 0.324219 L 8.21875 0.371094 L 8.589844 0.417969 L 9.097656 0.464844 L 9.421875 0.511719 L 9.75 0.511719 Z M 10.167969 0.558594 "/></g></g></g><g fill="#ffffff" fill-opacity="1"><g transform="translate(138.808433, 52.157134)"><g><path d="M 2.367188 0.09375 L 7.289062 0.09375 L 7.800781 -0.09375 L 7.9375 -0.558594 L 8.125 -1.113281 L 8.261719 -1.949219 L 8.355469 -2.226562 L 8.355469 -2.832031 L 8.402344 -3.15625 L 8.542969 -3.761719 L 8.726562 -5.105469 L 8.820312 -5.429688 L 8.867188 -5.710938 L 8.960938 -6.359375 L 9.144531 -7.289062 L 9.332031 -7.984375 L 9.421875 -8.632812 L 9.46875 -8.914062 L 9.421875 -9.238281 L 9.515625 -9.5625 L 9.65625 -10.121094 L 9.5625 -10.445312 L 9.703125 -11.046875 L 9.796875 -11.328125 L 9.980469 -13.136719 L 10.304688 -15.367188 L 10.351562 -16.527344 L 10.445312 -17.316406 L 10.492188 -17.828125 L 10.539062 -18.753906 L 10.585938 -20.054688 L 10.722656 -20.054688 L 11.003906 -18.289062 L 11.28125 -16.621094 L 11.421875 -15.320312 L 11.652344 -13.832031 L 11.835938 -12.535156 L 11.929688 -11.652344 L 12.117188 -10.722656 L 12.117188 -10.027344 L 12.164062 -9.75 L 12.300781 -9.097656 L 12.347656 -8.820312 L 12.488281 -8.171875 L 12.488281 -7.890625 L 12.628906 -7.195312 L 12.765625 -6.683594 L 12.8125 -5.988281 L 12.90625 -5.339844 L 12.953125 -5.058594 L 13.136719 -4.085938 L 13.183594 -3.808594 L 13.277344 -2.832031 L 13.324219 -2.554688 L 13.371094 -1.996094 L 13.417969 -1.765625 L 13.648438 -1.113281 L 14.019531 -0.371094 L 14.390625 -0.046875 L 15.179688 -0.046875 L 15.785156 0 L 16.710938 0 L 16.992188 -0.046875 L 17.453125 0 L 17.78125 -0.046875 L 18.660156 0 L 18.847656 0 L 19.359375 -0.09375 L 20.007812 -0.140625 L 20.472656 -0.464844 L 20.890625 -1.019531 L 21.121094 -2.507812 L 21.261719 -3.109375 L 21.355469 -3.433594 L 21.355469 -3.714844 L 21.585938 -4.316406 L 21.585938 -5.058594 L 21.773438 -5.710938 L 21.910156 -6.082031 L 22.003906 -6.683594 L 22.050781 -7.289062 L 22.097656 -7.800781 L 22.28125 -8.355469 L 22.46875 -8.773438 L 22.5625 -9.238281 L 22.652344 -9.886719 L 22.839844 -10.539062 L 22.839844 -10.816406 L 22.886719 -11.09375 L 22.933594 -11.421875 L 22.980469 -11.699219 L 23.027344 -12.117188 L 23.117188 -12.535156 L 23.257812 -13.183594 L 23.398438 -13.460938 L 23.398438 -14.066406 L 23.445312 -14.34375 L 23.488281 -14.667969 L 23.582031 -14.949219 L 23.628906 -15.273438 L 23.722656 -15.550781 L 23.675781 -15.96875 L 23.769531 -16.339844 L 23.859375 -16.992188 L 24 -17.59375 L 24.09375 -17.917969 L 24.234375 -18.523438 L 24.324219 -18.894531 L 24.371094 -19.21875 L 24.417969 -19.730469 L 24.558594 -20.148438 L 24.742188 -21.539062 L 24.835938 -21.863281 L 24.835938 -22.46875 L 24.929688 -22.792969 L 25.023438 -23.164062 L 25.160156 -23.582031 L 25.253906 -24.324219 L 25.441406 -25.066406 L 25.578125 -26.042969 L 25.671875 -26.414062 L 25.8125 -27.25 L 25.949219 -27.761719 L 26.230469 -28.875 L 26.320312 -29.523438 L 26.460938 -30.546875 L 26.414062 -30.917969 L 26.554688 -31.566406 L 26.554688 -31.9375 L 26.507812 -32.308594 L 26.230469 -32.449219 L 25.578125 -32.589844 L 24.929688 -32.542969 L 24.464844 -32.542969 L 23.398438 -32.589844 L 22.933594 -32.589844 L 22.609375 -32.542969 L 21.632812 -32.636719 L 20.75 -32.449219 L 20.566406 -32.308594 L 20.195312 -31.660156 L 20.007812 -30.683594 L 19.867188 -29.941406 L 19.824219 -29.664062 L 19.824219 -29.246094 L 19.683594 -28.875 L 19.589844 -28.550781 L 19.449219 -27.898438 L 19.40625 -27.527344 L 19.3125 -26.878906 L 19.21875 -26.601562 L 19.171875 -26.273438 L 19.035156 -25.671875 L 19.035156 -25.394531 L 18.894531 -24.558594 L 18.941406 -24.234375 L 18.660156 -23.675781 L 18.660156 -23.351562 L 18.617188 -22.792969 L 18.617188 -22.238281 L 18.429688 -21.632812 L 18.429688 -21.355469 L 18.335938 -20.703125 L 18.242188 -20.425781 L 18.199219 -19.777344 L 18.152344 -19.40625 L 18.105469 -19.078125 L 18.058594 -18.800781 L 17.917969 -18.152344 L 17.917969 -16.574219 L 17.78125 -15.597656 L 17.640625 -13.371094 L 17.640625 -12.71875 L 17.546875 -11.605469 L 17.5 -10.675781 L 17.363281 -10.675781 L 17.222656 -11.699219 L 17.082031 -12.953125 L 16.992188 -13.507812 L 16.898438 -13.832031 L 16.898438 -14.160156 L 16.804688 -15.179688 L 16.621094 -16.246094 L 16.480469 -17.5 L 16.386719 -17.871094 L 16.292969 -18.523438 L 16.246094 -19.265625 L 16.109375 -20.054688 L 16.015625 -20.84375 L 15.875 -21.539062 L 15.832031 -22.050781 L 15.832031 -22.375 L 15.691406 -22.886719 L 15.691406 -23.164062 L 15.550781 -23.769531 L 15.457031 -24.464844 L 15.414062 -24.789062 L 15.320312 -25.160156 L 15.132812 -26.089844 L 14.996094 -26.738281 L 14.855469 -27.527344 L 14.714844 -28.269531 L 14.53125 -29.386719 L 14.34375 -30.035156 L 14.296875 -30.546875 L 14.207031 -31.101562 L 14.019531 -31.566406 L 13.972656 -31.890625 L 13.695312 -32.308594 L 13.183594 -32.449219 L 12.535156 -32.449219 L 11.835938 -32.496094 L 11.28125 -32.449219 L 10.398438 -32.496094 L 9.796875 -32.449219 L 9.378906 -32.449219 L 8.589844 -32.496094 L 7.9375 -32.449219 L 7.472656 -32.355469 L 7.195312 -31.847656 L 7.054688 -31.613281 L 6.964844 -31.335938 L 6.824219 -30.730469 L 6.824219 -30.359375 L 6.683594 -29.757812 L 6.59375 -29.199219 L 6.5 -28.597656 L 6.453125 -28.269531 L 6.359375 -27.992188 L 6.3125 -27.667969 L 6.265625 -27.390625 L 6.21875 -27.0625 L 6.175781 -26.460938 L 6.082031 -26.042969 L 5.894531 -25.625 L 5.894531 -25.300781 L 5.664062 -24 L 5.570312 -23.722656 L 5.523438 -23.398438 L 5.523438 -22.839844 L 5.386719 -22.421875 L 5.246094 -21.910156 L 5.152344 -21.308594 L 5.058594 -20.984375 L 5.058594 -20.65625 L 4.921875 -20.332031 L 4.921875 -19.960938 L 4.78125 -19.589844 L 4.734375 -19.21875 L 4.734375 -18.570312 L 4.640625 -18.105469 L 4.550781 -17.734375 L 4.316406 -17.175781 L 4.269531 -16.710938 L 4.222656 -16.0625 L 4.179688 -15.738281 L 4.132812 -15.457031 L 3.898438 -14.902344 L 3.898438 -14.625 L 3.851562 -14.34375 L 3.808594 -13.742188 L 3.714844 -13.460938 L 3.667969 -13.136719 L 3.574219 -12.582031 L 3.433594 -12.070312 L 3.34375 -11.652344 L 3.25 -11.09375 L 3.0625 -10.351562 L 2.972656 -9.75 L 3.015625 -9.421875 L 2.972656 -9.144531 L 2.832031 -8.589844 L 2.785156 -8.261719 L 2.738281 -7.707031 L 2.554688 -7.382812 L 2.554688 -6.777344 L 2.460938 -6.40625 L 2.460938 -6.082031 L 2.320312 -5.339844 L 2.226562 -4.921875 L 2.089844 -4.269531 L 1.996094 -4.039062 L 1.855469 -3.390625 L 1.808594 -3.0625 L 1.625 -2.414062 L 1.53125 -1.671875 L 1.53125 -0.929688 L 1.4375 -0.558594 L 1.671875 0 Z M 2.367188 0.09375 "/></g></g></g><g fill="#ffffff" fill-opacity="1"><g transform="translate(163.594843, 52.157134)"><g><path d="M 6.824219 0.046875 L 7.195312 0 L 7.9375 -0.046875 L 8.914062 -0.046875 L 9.191406 -0.09375 L 9.796875 -0.046875 L 10.539062 -0.09375 L 14.949219 -0.09375 L 15.085938 -0.601562 L 15.179688 -1.019531 L 15.226562 -1.808594 L 15.367188 -2.507812 L 15.414062 -2.832031 L 15.503906 -3.109375 L 15.597656 -3.433594 L 15.597656 -4.039062 L 15.785156 -5.058594 L 15.832031 -5.429688 L 15.921875 -5.941406 L 15.96875 -6.128906 L 16.015625 -6.5 L 15.691406 -6.636719 L 14.390625 -6.59375 L 13.371094 -6.636719 L 12.71875 -6.683594 L 9.980469 -6.683594 L 9.332031 -6.777344 L 9.144531 -6.964844 L 9.144531 -7.335938 L 9.332031 -8.542969 L 9.46875 -9.378906 L 9.5625 -9.703125 L 9.609375 -10.167969 L 9.703125 -10.585938 L 9.839844 -11.046875 L 10.027344 -12.347656 L 10.167969 -12.953125 L 10.351562 -13.460938 L 10.769531 -13.460938 L 11.375 -13.507812 L 11.882812 -13.507812 L 12.671875 -13.460938 L 13.832031 -13.507812 L 14.25 -13.507812 L 14.949219 -13.554688 L 15.414062 -13.554688 L 15.503906 -13.648438 L 15.597656 -14.296875 L 15.738281 -15.039062 L 15.832031 -15.691406 L 15.96875 -16.0625 L 15.96875 -16.386719 L 16.109375 -17.082031 L 16.203125 -17.410156 L 16.339844 -18.058594 L 16.433594 -18.570312 L 16.433594 -18.941406 L 16.527344 -19.496094 L 16.246094 -19.867188 L 15.875 -19.960938 L 14.667969 -19.960938 L 13.789062 -19.867188 L 12.164062 -19.914062 L 11.328125 -19.914062 L 11.421875 -20.75 L 11.558594 -21.214844 L 11.511719 -21.585938 L 11.605469 -21.910156 L 11.746094 -22.5625 L 11.835938 -23.210938 L 11.976562 -24.09375 L 11.976562 -24.464844 L 12.117188 -24.742188 L 12.117188 -25.394531 L 12.164062 -25.71875 L 12.300781 -26.273438 L 13.417969 -26.320312 L 16.433594 -26.320312 L 16.992188 -26.367188 L 18.941406 -26.367188 L 19.40625 -26.414062 L 19.542969 -27.019531 L 19.589844 -27.296875 L 19.777344 -27.945312 L 19.777344 -28.316406 L 19.914062 -29.015625 L 19.960938 -29.292969 L 20.007812 -29.617188 L 20.148438 -29.941406 L 20.148438 -30.222656 L 20.242188 -31.382812 L 20.242188 -31.660156 L 20.378906 -32.171875 L 20.148438 -32.496094 L 19.730469 -32.542969 L 19.265625 -32.589844 L 18.847656 -32.542969 L 17.828125 -32.542969 L 16.480469 -32.496094 L 16.109375 -32.542969 L 15.039062 -32.589844 L 11.558594 -32.542969 L 10.539062 -32.496094 L 10.074219 -32.496094 L 9.703125 -32.542969 L 9.378906 -32.542969 L 8.820312 -32.496094 L 8.496094 -32.542969 L 8.21875 -32.496094 L 7.425781 -32.496094 L 7.054688 -32.21875 L 7.011719 -31.9375 L 6.871094 -31.660156 L 6.730469 -31.101562 L 6.824219 -30.777344 L 6.777344 -30.5 L 6.730469 -29.894531 L 6.683594 -29.617188 L 6.59375 -29.339844 L 6.546875 -28.734375 L 6.453125 -28.410156 L 6.5 -28.132812 L 6.359375 -27.808594 L 6.359375 -27.480469 L 6.21875 -27.203125 L 6.128906 -26.554688 L 5.941406 -25.949219 L 5.894531 -25.625 L 5.941406 -25.347656 L 5.894531 -25.023438 L 5.804688 -24.652344 L 5.617188 -24.371094 L 5.570312 -23.398438 L 5.429688 -23.070312 L 5.386719 -21.773438 L 5.199219 -21.074219 L 5.058594 -20.425781 L 5.105469 -20.148438 L 5.011719 -19.824219 L 4.875 -19.449219 L 4.597656 -18.058594 L 4.410156 -17.78125 L 4.410156 -17.453125 L 4.363281 -17.128906 L 4.316406 -16.757812 L 4.179688 -16.433594 L 4.085938 -15.738281 L 3.898438 -15.085938 L 3.898438 -14.390625 L 3.714844 -13.417969 L 3.621094 -13.089844 L 3.480469 -12.394531 L 3.433594 -12.070312 L 3.296875 -11.746094 L 3.15625 -11.140625 L 3.203125 -10.863281 L 3.015625 -10.304688 L 3.015625 -10.074219 L 2.925781 -9.46875 L 2.832031 -9.097656 L 2.832031 -8.773438 L 2.738281 -8.03125 L 2.554688 -7.660156 L 2.460938 -7.054688 L 2.414062 -6.40625 L 2.367188 -6.082031 L 2.273438 -5.710938 L 2.273438 -5.386719 L 2.183594 -5.058594 L 2.183594 -4.640625 L 2.042969 -4.269531 L 1.996094 -3.527344 L 1.808594 -2.832031 L 1.71875 -2.089844 L 1.625 -1.394531 L 1.53125 -0.976562 L 1.394531 -0.558594 L 1.53125 -0.140625 L 1.949219 -0.046875 L 4.410156 -0.046875 L 4.734375 0 L 5.941406 0 Z M 6.824219 0.046875 "/></g></g></g><g fill="#ffffff" fill-opacity="1"><g transform="translate(180.86176, 52.157134)"><g><path d="M 13.460938 0.140625 L 14.207031 0.046875 L 15.273438 0.046875 L 17.039062 0 L 17.828125 0.046875 L 18.152344 0 L 18.753906 0 L 19.359375 -0.09375 L 19.683594 -0.324219 L 19.496094 -1.113281 L 19.40625 -1.4375 L 19.171875 -1.765625 L 19.078125 -2.089844 L 18.988281 -2.832031 L 18.800781 -3.480469 L 18.660156 -3.761719 L 18.570312 -4.179688 L 18.523438 -4.6875 L 18.476562 -4.96875 L 18.199219 -5.570312 L 18.199219 -5.847656 L 18.105469 -6.175781 L 17.917969 -6.777344 L 17.828125 -7.054688 L 17.734375 -7.382812 L 17.546875 -8.078125 L 17.269531 -9.050781 L 17.175781 -9.332031 L 17.082031 -9.75 L 16.898438 -10.398438 L 16.757812 -11.046875 L 16.621094 -11.421875 L 16.480469 -12.023438 L 16.386719 -12.394531 L 16.246094 -12.765625 L 16.203125 -13.089844 L 16.15625 -13.460938 L 15.96875 -14.066406 L 15.921875 -14.390625 L 15.785156 -15.085938 L 15.597656 -15.875 L 15.503906 -16.386719 L 15.550781 -16.757812 L 15.96875 -17.316406 L 16.339844 -18.058594 L 16.527344 -18.335938 L 17.039062 -19.21875 L 17.59375 -20.054688 L 17.871094 -20.519531 L 18.105469 -21.03125 L 18.242188 -21.261719 L 18.570312 -21.773438 L 19.078125 -22.609375 L 19.3125 -23.117188 L 19.636719 -23.628906 L 19.730469 -24.046875 L 20.054688 -24.558594 L 20.242188 -24.882812 L 20.425781 -25.113281 L 20.703125 -25.484375 L 20.9375 -25.949219 L 21.214844 -26.414062 L 21.402344 -26.878906 L 21.539062 -27.203125 L 21.863281 -27.4375 L 22.003906 -27.855469 L 22.144531 -28.132812 L 22.28125 -28.316406 L 22.609375 -28.875 L 22.839844 -29.433594 L 22.980469 -29.664062 L 23.257812 -29.988281 L 23.398438 -30.269531 L 23.488281 -30.546875 L 23.675781 -30.871094 L 23.769531 -31.148438 L 23.859375 -31.472656 L 24.140625 -31.984375 L 24.09375 -32.308594 L 23.816406 -32.496094 L 22.839844 -32.496094 L 22.609375 -32.402344 L 22.28125 -32.496094 L 21.402344 -32.402344 L 21.074219 -32.402344 L 20.566406 -32.496094 L 20.054688 -32.402344 L 19.683594 -32.496094 L 18.382812 -32.496094 L 17.734375 -32.308594 L 17.546875 -32.078125 L 17.410156 -31.847656 L 17.175781 -31.289062 L 16.945312 -30.964844 L 16.898438 -30.640625 L 16.757812 -30.359375 L 16.574219 -30.082031 L 16.480469 -29.757812 L 16.292969 -29.476562 L 16.0625 -28.875 L 15.921875 -28.597656 L 15.738281 -28.316406 L 15.644531 -28.085938 L 15.457031 -27.808594 L 14.296875 -25.484375 L 14.113281 -25.023438 L 13.925781 -24.789062 L 13.832031 -24.511719 L 13.460938 -24 L 13.183594 -23.351562 L 12.953125 -22.792969 L 12.859375 -22.652344 L 12.71875 -22.652344 L 12.628906 -23.351562 L 12.488281 -23.769531 L 12.394531 -24.464844 L 12.253906 -24.835938 L 12.164062 -25.347656 L 12.070312 -25.8125 L 11.976562 -26.320312 L 11.792969 -26.648438 L 11.699219 -27.019531 L 11.652344 -27.34375 L 11.558594 -28.039062 L 11.375 -28.410156 L 11.328125 -28.6875 L 11.140625 -29.386719 L 11.140625 -29.664062 L 11.046875 -29.988281 L 11.003906 -30.269531 L 10.816406 -30.964844 L 10.675781 -31.289062 L 10.585938 -31.847656 L 10.492188 -32.265625 L 10.257812 -32.402344 L 9.703125 -32.402344 L 9.378906 -32.449219 L 8.726562 -32.449219 L 8.308594 -32.402344 L 7.84375 -32.496094 L 7.195312 -32.496094 L 6.636719 -32.449219 L 4.550781 -32.449219 L 4.179688 -32.402344 L 3.808594 -31.984375 L 3.808594 -31.707031 L 3.851562 -31.382812 L 3.992188 -31.011719 L 4.132812 -30.683594 L 4.316406 -29.988281 L 4.410156 -29.664062 L 4.6875 -29.015625 L 4.875 -28.363281 L 5.058594 -27.761719 L 5.152344 -27.480469 L 5.292969 -26.878906 L 5.386719 -26.601562 L 5.664062 -25.949219 L 5.757812 -25.578125 L 5.894531 -25.253906 L 5.988281 -24.882812 L 6.175781 -24.234375 L 6.3125 -23.90625 L 6.40625 -23.535156 L 6.59375 -22.886719 L 6.777344 -22.515625 L 6.917969 -22.191406 L 7.054688 -21.539062 L 7.101562 -21.261719 L 7.335938 -20.613281 L 7.425781 -19.914062 L 7.566406 -19.589844 L 7.800781 -18.894531 L 7.84375 -18.570312 L 7.984375 -18.242188 L 8.21875 -17.546875 L 7.800781 -16.898438 L 7.566406 -16.292969 L 7.425781 -16.0625 L 7.289062 -15.785156 L 7.148438 -15.550781 L 6.777344 -15.039062 L 6.683594 -14.761719 L 6.5 -14.484375 L 6.359375 -14.25 L 5.941406 -13.417969 L 5.804688 -13.089844 L 5.617188 -12.8125 L 5.476562 -12.535156 L 5.199219 -11.929688 L 5.011719 -11.605469 L 4.828125 -11.375 L 4.457031 -10.816406 L 4.132812 -10.257812 L 3.945312 -10.027344 L 3.808594 -9.75 L 3.714844 -9.46875 L 3.480469 -9.191406 L 3.390625 -8.867188 L 3.15625 -8.308594 L 3.015625 -8.03125 L 2.601562 -7.242188 L 2.320312 -6.964844 L 2.226562 -6.730469 L 2.042969 -6.453125 L 1.855469 -5.941406 L 1.71875 -5.664062 L 1.625 -5.386719 L 1.300781 -4.828125 L 1.160156 -4.550781 L 0.976562 -4.269531 L 0.835938 -3.992188 L 0.558594 -3.480469 L 0.417969 -3.203125 L -0.140625 -2.183594 L -0.371094 -1.625 L -0.742188 -1.019531 L -0.835938 -0.1875 L -0.324219 0 L 0.511719 0 L 1.253906 -0.046875 L 1.949219 0 L 2.691406 0 L 3.15625 0.046875 L 4.222656 0.046875 L 4.875 0 L 5.386719 -0.046875 L 5.664062 -0.464844 L 5.847656 -0.882812 L 6.035156 -1.160156 L 6.3125 -1.765625 L 6.453125 -2.136719 L 6.59375 -2.367188 L 6.871094 -2.925781 L 6.964844 -3.203125 L 7.242188 -3.761719 L 7.382812 -4.085938 L 7.707031 -4.640625 L 7.84375 -4.96875 L 8.171875 -5.523438 L 8.308594 -5.804688 L 8.449219 -6.128906 L 9.144531 -7.242188 L 9.285156 -7.472656 L 9.46875 -7.753906 L 9.515625 -7.984375 L 9.703125 -8.261719 L 10.027344 -8.820312 L 10.398438 -9.5625 L 10.585938 -9.839844 L 10.722656 -9.886719 L 10.910156 -9.332031 L 11.003906 -8.914062 L 11.140625 -8.261719 L 11.28125 -7.9375 L 11.328125 -7.519531 L 11.464844 -6.964844 L 11.558594 -6.683594 L 11.652344 -6.082031 L 11.929688 -5.105469 L 12.070312 -4.503906 L 12.210938 -3.851562 L 12.394531 -3.15625 L 12.535156 -2.367188 L 12.671875 -2.042969 L 12.71875 -1.671875 L 12.765625 -1.113281 L 12.859375 -0.742188 L 13 -0.511719 L 13.042969 -0.277344 L 13.183594 0.046875 Z M 13.460938 0.140625 "/></g></g></g><g fill="#ffffff" fill-opacity="1"><g transform="translate(201.656341, 52.157134)"><g><path d="M 5.757812 0.140625 L 6.3125 0 L 10.351562 0 L 10.910156 -0.230469 L 11.003906 -0.511719 L 11.140625 -1.160156 L 11.234375 -1.808594 L 11.511719 -3.109375 L 11.746094 -4.132812 L 11.699219 -4.503906 L 11.835938 -5.152344 L 11.929688 -5.523438 L 12.164062 -6.5 L 12.300781 -7.101562 L 12.347656 -7.425781 L 12.535156 -8.03125 L 12.671875 -8.773438 L 12.8125 -9.421875 L 12.765625 -9.75 L 12.8125 -10.027344 L 12.859375 -10.351562 L 13.042969 -10.910156 L 13.089844 -11.234375 L 13.183594 -11.511719 L 13.230469 -11.792969 L 13.230469 -12.253906 L 13.324219 -12.671875 L 13.460938 -13.371094 L 13.601562 -14.019531 L 13.601562 -14.296875 L 13.695312 -14.578125 L 13.742188 -15.226562 L 13.925781 -15.550781 L 14.066406 -16.109375 L 14.113281 -16.710938 L 14.113281 -17.039062 L 14.25 -17.316406 L 14.390625 -17.964844 L 14.484375 -18.289062 L 14.578125 -18.988281 L 14.808594 -19.542969 L 14.808594 -19.867188 L 14.855469 -20.148438 L 14.902344 -20.703125 L 14.902344 -20.984375 L 15.085938 -21.585938 L 15.320312 -22.238281 L 15.226562 -22.46875 L 15.414062 -22.839844 L 15.597656 -23.675781 L 15.644531 -24 L 15.738281 -24.605469 L 15.832031 -24.882812 L 15.832031 -25.160156 L 15.96875 -25.484375 L 15.921875 -25.765625 L 16.015625 -26.089844 L 16.433594 -26.136719 L 18.382812 -26.089844 L 18.847656 -26.089844 L 19.265625 -26.136719 L 19.824219 -26.136719 L 20.242188 -26.089844 L 20.703125 -26.136719 L 20.890625 -26.554688 L 20.9375 -27.203125 L 21.03125 -27.527344 L 21.214844 -28.132812 L 21.261719 -28.6875 L 21.308594 -28.96875 L 21.402344 -29.292969 L 21.492188 -29.851562 L 21.492188 -30.128906 L 21.585938 -30.453125 L 21.632812 -30.730469 L 21.632812 -31.058594 L 21.726562 -31.429688 L 21.773438 -31.753906 L 21.773438 -32.03125 L 21.679688 -32.402344 L 21.261719 -32.496094 L 20.613281 -32.542969 L 17.734375 -32.542969 L 17.316406 -32.589844 L 16.339844 -32.542969 L 15.644531 -32.589844 L 12.671875 -32.542969 L 11.652344 -32.542969 L 11.328125 -32.589844 L 7.890625 -32.589844 L 7.566406 -32.542969 L 7.242188 -32.542969 L 7.011719 -32.589844 L 5.804688 -32.589844 L 5.476562 -32.542969 L 5.058594 -32.21875 L 4.828125 -31.707031 L 4.78125 -31.429688 L 4.78125 -30.777344 L 4.640625 -30.5 L 4.457031 -29.894531 L 4.410156 -29.246094 L 4.316406 -28.96875 L 4.132812 -28.316406 L 4.179688 -27.992188 L 4.179688 -27.621094 L 4.039062 -27.25 L 3.945312 -26.691406 L 4.085938 -26.273438 L 4.503906 -26.136719 L 4.875 -26.136719 L 5.339844 -26.089844 L 5.757812 -26.089844 L 6.082031 -26.136719 L 6.730469 -26.089844 L 9.238281 -26.089844 L 9.191406 -25.347656 L 9.097656 -24.652344 L 9.007812 -24.324219 L 8.867188 -23.722656 L 8.867188 -23.445312 L 8.820312 -23.117188 L 8.820312 -22.839844 L 8.773438 -22.5625 L 8.542969 -21.820312 L 8.449219 -21.492188 L 8.402344 -21.167969 L 8.402344 -20.796875 L 8.308594 -20.566406 L 8.308594 -20.101562 L 8.078125 -19.589844 L 8.125 -19.265625 L 7.984375 -18.570312 L 7.890625 -18.289062 L 7.890625 -17.964844 L 7.707031 -17.6875 L 7.613281 -17.363281 L 7.613281 -16.945312 L 7.472656 -16.480469 L 7.472656 -15.832031 L 7.382812 -15.550781 L 7.148438 -14.996094 L 7.242188 -14.667969 L 7.148438 -14.34375 L 6.964844 -13.648438 L 6.730469 -13 L 6.636719 -12.671875 L 6.59375 -12.347656 L 6.683594 -11.882812 L 6.453125 -11.421875 L 6.40625 -10.769531 L 6.3125 -10.492188 L 6.21875 -9.886719 L 6.175781 -9.5625 L 6.082031 -9.238281 L 5.941406 -8.542969 L 5.804688 -7.984375 L 5.804688 -7.613281 L 5.570312 -6.636719 L 5.617188 -6.265625 L 5.570312 -5.941406 L 5.339844 -5.292969 L 5.339844 -4.96875 L 5.292969 -4.316406 L 5.199219 -4.039062 L 5.152344 -3.34375 L 5.058594 -3.015625 L 4.734375 -2.042969 L 4.6875 -1.066406 L 4.597656 -0.371094 L 5.011719 0 L 5.339844 0 Z M 5.757812 0.140625 "/></g></g></g><g clip-path="url(#6cb650a7f0)"><g clip-path="url(#05a9f62b18)"><g clip-path="url(#d6aa549f8e)"><path fill="#fdf9f7" d="M 9.015625 -3.410156 L 76.542969 11.519531 L 61.613281 79.046875 L -5.914062 64.117188 Z M 9.015625 -3.410156 " fill-opacity="1" fill-rule="nonzero"/></g></g></g><g clip-path="url(#8facf75c85)"><g clip-path="url(#88c610f375)"><g clip-path="url(#c9aca7076d)"><path fill="#0b0019" d="M 67.601562 35.308594 C 67.882812 40.84375 66.699219 46.085938 64.378906 51.085938 C 63.136719 53.765625 61.535156 56.226562 59.636719 58.503906 C 56.707031 62.027344 53.230469 64.855469 49.183594 66.992188 C 46.257812 68.535156 43.164062 69.636719 39.90625 70.199219 C 38.09375 70.511719 36.257812 70.816406 34.40625 70.71875 C 33.15625 70.652344 31.902344 70.632812 30.652344 70.519531 C 27.15625 70.210938 23.882812 69.210938 20.730469 67.746094 C 18.390625 66.660156 16.257812 65.242188 14.257812 63.613281 C 12.941406 62.535156 11.761719 61.324219 10.652344 60.039062 C 10.34375 59.683594 10.304688 59.253906 10.589844 59.03125 C 10.949219 58.746094 11.289062 58.832031 11.585938 59.152344 C 12.195312 59.800781 12.789062 60.460938 13.429688 61.085938 C 17.011719 64.574219 21.214844 66.988281 26.03125 68.328125 C 27.910156 68.851562 29.820312 69.191406 31.777344 69.316406 C 32.800781 69.382812 33.824219 69.457031 34.84375 69.453125 C 35.933594 69.453125 37.023438 69.300781 38.109375 69.15625 C 40.214844 68.878906 42.277344 68.402344 44.28125 67.691406 C 47.679688 66.488281 50.808594 64.789062 53.636719 62.535156 C 55.277344 61.230469 56.816406 59.824219 58.183594 58.238281 C 60.695312 55.324219 62.664062 52.074219 64.070312 48.488281 C 64.910156 46.34375 65.515625 44.140625 65.898438 41.871094 C 66.054688 40.953125 66.128906 40.03125 66.238281 39.109375 C 66.511719 36.789062 66.449219 34.457031 66.105469 32.171875 C 65.621094 28.976562 64.726562 25.875 63.300781 22.945312 C 62.179688 20.65625 60.824219 18.523438 59.179688 16.582031 C 57.242188 14.296875 55.011719 12.347656 52.46875 10.746094 C 49.167969 8.664062 45.609375 7.289062 41.769531 6.613281 C 39.21875 6.164062 36.652344 5.980469 34.082031 6.226562 C 29.410156 6.679688 25 8.027344 20.929688 10.394531 C 18.285156 11.933594 15.898438 13.800781 13.753906 16 C 10.734375 19.09375 8.441406 22.648438 6.785156 26.621094 C 5.578125 29.515625 4.820312 32.53125 4.5 35.648438 C 4.347656 37.121094 4.265625 38.609375 4.332031 40.089844 C 4.480469 43.613281 5.09375 47.046875 6.386719 50.34375 C 6.46875 50.550781 6.5625 50.757812 6.613281 50.96875 C 6.679688 51.25 6.65625 51.570312 6.339844 51.648438 C 6.042969 51.71875 5.667969 51.914062 5.445312 51.457031 C 5.097656 50.746094 4.835938 50.003906 4.601562 49.253906 C 4.015625 47.382812 3.527344 45.480469 3.308594 43.523438 C 3.078125 41.46875 2.917969 39.398438 3.039062 37.34375 C 3.402344 31.253906 5.210938 25.605469 8.515625 20.460938 C 9.882812 18.335938 11.457031 16.367188 13.257812 14.601562 C 16.5625 11.375 20.339844 8.847656 24.652344 7.148438 C 26.714844 6.335938 28.832031 5.734375 31 5.320312 C 33.28125 4.886719 35.601562 4.769531 37.90625 4.855469 C 41.992188 5.007812 45.921875 5.964844 49.640625 7.691406 C 52.089844 8.828125 54.351562 10.265625 56.421875 12.007812 C 61.476562 16.265625 64.804688 21.617188 66.550781 27.96875 C 66.882812 29.167969 67.101562 30.402344 67.328125 31.625 C 67.546875 32.839844 67.546875 34.078125 67.601562 35.308594 Z M 67.601562 35.308594 " fill-opacity="1" fill-rule="nonzero"/></g></g></g><g clip-path="url(#d938acc58c)"><g clip-path="url(#d992cdcab8)"><g clip-path="url(#e1f2dfd9cf)"><path fill="#000000" d="M 1.355469 64.539062 L 8.589844 3.855469 L 69.273438 11.089844 L 62.039062 71.773438 Z M 1.355469 64.539062 " fill-opacity="1" fill-rule="nonzero"/></g></g></g><g fill="#ffcc00" fill-opacity="1"><g transform="translate(25.087492, 48.872541)"><g><path d="M 2.765625 -1.265625 L 2.765625 -23.703125 L 8.890625 -23.703125 L 8.890625 -26.609375 L 11.03125 -26.609375 L 11.03125 -23.671875 C 13.34375 -23.503906 15.082031 -22.988281 16.25 -22.125 C 17.414062 -21.257812 18 -19.929688 18 -18.140625 C 18 -16.804688 17.625 -15.703125 16.875 -14.828125 C 16.125 -13.953125 15.050781 -13.398438 13.65625 -13.171875 L 13.65625 -13.03125 C 14.613281 -12.863281 15.476562 -12.582031 16.25 -12.1875 C 17.019531 -11.789062 17.628906 -11.222656 18.078125 -10.484375 C 18.535156 -9.753906 18.765625 -8.804688 18.765625 -7.640625 C 18.765625 -5.609375 18.054688 -4.035156 16.640625 -2.921875 C 15.234375 -1.816406 13.363281 -1.265625 11.03125 -1.265625 L 11.03125 2.03125 L 8.890625 2.03125 L 8.890625 -1.265625 Z M 5.78125 -14.328125 L 8.890625 -14.328125 L 8.890625 -21.015625 L 5.78125 -21.015625 Z M 14.78125 -17.78125 C 14.78125 -19.625 13.53125 -20.675781 11.03125 -20.9375 L 11.03125 -14.359375 C 12.457031 -14.472656 13.4375 -14.820312 13.96875 -15.40625 C 14.507812 -15.988281 14.78125 -16.78125 14.78125 -17.78125 Z M 5.78125 -3.921875 L 8.890625 -3.921875 L 8.890625 -11.625 L 5.78125 -11.625 Z M 15.4375 -7.90625 C 15.4375 -8.914062 15.109375 -9.753906 14.453125 -10.421875 C 13.804688 -11.085938 12.664062 -11.476562 11.03125 -11.59375 L 11.03125 -3.953125 C 12.664062 -4.046875 13.804688 -4.457031 14.453125 -5.1875 C 15.109375 -5.925781 15.4375 -6.832031 15.4375 -7.90625 Z M 15.4375 -7.90625 "/></g></g></g></svg>