<svg width="58" height="40" viewBox="0 0 58 40" fill="none" xmlns="http://www.w3.org/2000/svg">
<path d="M7.11454 34.8997H1.86271L0.711454 37.4433H0L4.16524 28.4051H4.82495L8.99019 37.4433H8.27873L7.11454 34.8997ZM6.86876 34.3445L4.48863 29.1281L2.12143 34.3445H6.86876Z" fill="#262338"/>
<path d="M13.7256 30.6517C14.5707 30.6517 15.2391 30.8971 15.7306 31.3877C16.2222 31.8784 16.4679 32.5842 16.4679 33.5052V37.4433H15.8211V33.5569C15.8211 32.7994 15.6271 32.2227 15.2391 31.8267C14.8596 31.4307 14.3249 31.2328 13.635 31.2328C12.8417 31.2328 12.2165 31.4695 11.7594 31.9429C11.3023 32.4163 11.0738 33.0533 11.0738 33.8539V37.4433H10.427V30.7034H11.0479V32.1624C11.2808 31.689 11.6257 31.3188 12.0828 31.052C12.5485 30.7852 13.0961 30.6517 13.7256 30.6517Z" fill="#262338"/>
<path d="M21.4074 30.6517C22.2439 30.6517 22.8863 30.8669 23.3348 31.2973C23.7832 31.7191 24.0074 32.3432 24.0074 33.1695V37.4433H23.3865V36.2425C23.1709 36.6385 22.8562 36.9484 22.4422 37.1722C22.0283 37.3874 21.5324 37.495 20.9546 37.495C20.2044 37.495 19.6093 37.3185 19.1695 36.9656C18.7383 36.6127 18.5228 36.1478 18.5228 35.5711C18.5228 35.0116 18.7211 34.5597 19.1178 34.2154C19.5231 33.8625 20.1656 33.686 21.0452 33.686H23.3606V33.1437C23.3606 32.5153 23.1882 32.0376 22.8432 31.7105C22.5069 31.3834 22.011 31.2199 21.3556 31.2199C20.9072 31.2199 20.476 31.2973 20.0621 31.4523C19.6568 31.6072 19.3118 31.8138 19.0272 32.072L18.7038 31.6072C19.0402 31.3059 19.4455 31.0735 19.9198 30.91C20.3941 30.7378 20.89 30.6517 21.4074 30.6517ZM21.0452 36.9656C21.6057 36.9656 22.08 36.8365 22.4681 36.5782C22.8648 36.32 23.1623 35.9456 23.3606 35.4549V34.1896H21.0581C20.3941 34.1896 19.9112 34.3101 19.6093 34.5511C19.3161 34.7921 19.1695 35.1235 19.1695 35.5453C19.1695 35.9843 19.3334 36.3329 19.6611 36.5911C19.9888 36.8408 20.4501 36.9656 21.0452 36.9656Z" fill="#262338"/>
<path d="M26.6722 27.8628H27.319V37.4433H26.6722V27.8628Z" fill="#262338"/>
<path d="M35.465 30.7034L31.9983 38.3601C31.7396 38.954 31.4378 39.3758 31.0928 39.6254C30.7565 39.875 30.3555 39.9999 29.8898 39.9999C29.5794 39.9999 29.2862 39.9482 29.0102 39.8449C28.7429 39.7416 28.5144 39.591 28.3246 39.393L28.648 38.9024C28.993 39.2553 29.4112 39.4317 29.9028 39.4317C30.2305 39.4317 30.5107 39.3414 30.7436 39.1606C30.9764 38.9798 31.192 38.6699 31.3904 38.2309L31.7526 37.4175L28.7127 30.7034H29.3983L32.1018 36.7332L34.8053 30.7034H35.465Z" fill="#262338"/>
<path d="M40.4189 37.0172C40.2551 37.1722 40.0481 37.2927 39.798 37.3788C39.5566 37.4562 39.3022 37.495 39.0348 37.495C38.4484 37.495 37.9957 37.3357 37.6766 37.0172C37.3575 36.6901 37.198 36.2382 37.198 35.6615V31.2586H35.9562V30.7034H37.198V29.2314H37.8448V30.7034H39.9921V31.2586H37.8448V35.5969C37.8448 36.0359 37.9483 36.3716 38.1552 36.6041C38.3708 36.8279 38.6856 36.9398 39.0995 36.9398C39.5221 36.9398 39.8713 36.815 40.1473 36.5653L40.4189 37.0172Z" fill="#262338"/>
<path d="M42.2226 30.7034H42.8694V37.4433H42.2226V30.7034ZM42.546 29.0636C42.3994 29.0636 42.2744 29.0162 42.1709 28.9216C42.0674 28.8183 42.0157 28.6935 42.0157 28.5471C42.0157 28.4008 42.0674 28.276 42.1709 28.1727C42.2744 28.0694 42.3994 28.0177 42.546 28.0177C42.6926 28.0177 42.8177 28.0694 42.9212 28.1727C43.0246 28.2674 43.0764 28.3879 43.0764 28.5342C43.0764 28.6805 43.0246 28.8054 42.9212 28.9086C42.8177 29.0119 42.6926 29.0636 42.546 29.0636Z" fill="#262338"/>
<path d="M48.2731 37.495C47.6177 37.495 47.0313 37.3486 46.5139 37.056C45.9965 36.7633 45.5912 36.3587 45.298 35.8423C45.0048 35.3172 44.8582 34.7276 44.8582 34.0734C44.8582 33.4105 45.0048 32.8209 45.298 32.3044C45.5912 31.7794 45.9965 31.3748 46.5139 31.0907C47.0313 30.7981 47.6177 30.6517 48.2731 30.6517C48.8164 30.6517 49.308 30.7593 49.7478 30.9745C50.1962 31.1811 50.5584 31.4867 50.8344 31.8913L50.3558 32.2399C50.1143 31.9042 49.8125 31.6545 49.4503 31.491C49.0967 31.3188 48.7043 31.2328 48.2731 31.2328C47.7471 31.2328 47.2728 31.3533 46.8502 31.5943C46.4363 31.8267 46.1086 32.1581 45.8671 32.5885C45.6343 33.0189 45.5179 33.5138 45.5179 34.0734C45.5179 34.6329 45.6343 35.1278 45.8671 35.5582C46.1086 35.9886 46.4363 36.3243 46.8502 36.5653C47.2728 36.7977 47.7471 36.9139 48.2731 36.9139C48.7043 36.9139 49.0967 36.8322 49.4503 36.6686C49.8125 36.4965 50.1143 36.2425 50.3558 35.9068L50.8344 36.2554C50.5584 36.66 50.1962 36.9699 49.7478 37.1851C49.308 37.3917 48.8164 37.495 48.2731 37.495Z" fill="#262338"/>
<path d="M54.4781 37.495C53.9348 37.495 53.4174 37.4132 52.9259 37.2496C52.4343 37.0861 52.0506 36.8795 51.7746 36.6299L52.0721 36.1134C52.3481 36.3458 52.7017 36.5395 53.1328 36.6944C53.5727 36.8494 54.0297 36.9269 54.504 36.9269C55.1853 36.9269 55.6855 36.815 56.0045 36.5911C56.3322 36.3673 56.4961 36.0575 56.4961 35.6615C56.4961 35.3774 56.4055 35.1536 56.2244 34.9901C56.052 34.8265 55.8364 34.706 55.5777 34.6286C55.3189 34.5511 54.9611 34.4693 54.504 34.3832C53.9693 34.2885 53.5382 34.1853 53.2105 34.0734C52.8828 33.9615 52.6025 33.7807 52.3697 33.5311C52.1368 33.2814 52.0204 32.9371 52.0204 32.4981C52.0204 31.9644 52.2403 31.5254 52.6801 31.1811C53.1285 30.8282 53.7624 30.6517 54.5816 30.6517C55.0128 30.6517 55.4397 30.712 55.8622 30.8325C56.2848 30.953 56.6297 31.1123 56.8971 31.3102L56.5996 31.8267C56.3236 31.6287 56.0088 31.4781 55.6553 31.3748C55.3017 31.2715 54.9395 31.2199 54.5687 31.2199C53.9392 31.2199 53.4649 31.3361 53.1458 31.5685C52.8267 31.8009 52.6672 32.1065 52.6672 32.4852C52.6672 32.7865 52.7577 33.0232 52.9388 33.1954C53.1199 33.3589 53.3398 33.4837 53.5985 33.5698C53.8659 33.6473 54.2367 33.7333 54.711 33.828C55.237 33.9227 55.6596 34.026 55.9787 34.1379C56.3064 34.2412 56.5823 34.4134 56.8065 34.6544C57.0307 34.8954 57.1429 35.2268 57.1429 35.6486C57.1429 36.2081 56.91 36.6557 56.4443 36.9914C55.9787 37.3271 55.3233 37.495 54.4781 37.495Z" fill="#262338"/>
<mask id="path-2-inside-1_6587_48470" fill="white">
<path d="M44.4346 0C46.1035 1.98909e-08 47.7559 0.328541 49.2977 0.966865C50.8395 1.60519 52.2404 2.54079 53.4204 3.72026C54.6005 4.89973 55.5365 6.29997 56.1752 7.84102C56.8138 9.38207 57.1425 11.0338 57.1425 12.7018L44.4346 12.7018V0Z"/>
</mask>
<path d="M44.4346 0C46.1035 1.98909e-08 47.7559 0.328541 49.2977 0.966865C50.8395 1.60519 52.2404 2.54079 53.4204 3.72026C54.6005 4.89973 55.5365 6.29997 56.1752 7.84102C56.8138 9.38207 57.1425 11.0338 57.1425 12.7018L44.4346 12.7018V0Z" fill="#FD7465" stroke="white" mask="url(#path-2-inside-1_6587_48470)"/>
<mask id="path-3-inside-2_6587_48470" fill="white">
<path d="M35.4488 21.6833C33.6716 19.9069 32.4613 17.6437 31.971 15.1798C31.4806 12.7159 31.7323 10.162 32.6941 7.84101C33.656 5.52007 35.2848 3.53632 37.3745 2.14063C39.4643 0.744946 41.9213 -2.99574e-08 44.4346 0V12.7018L35.4488 21.6833Z"/>
</mask>
<path d="M35.4488 21.6833C33.6716 19.9069 32.4613 17.6437 31.971 15.1798C31.4806 12.7159 31.7323 10.162 32.6941 7.84101C33.656 5.52007 35.2848 3.53632 37.3745 2.14063C39.4643 0.744946 41.9213 -2.99574e-08 44.4346 0V12.7018L35.4488 21.6833Z" fill="#6E7191" stroke="white" mask="url(#path-3-inside-2_6587_48470)"/>
<mask id="path-4-inside-3_6587_48470" fill="white">
<path d="M53.4204 21.6833C51.0373 24.0653 47.805 25.4035 44.4346 25.4035C41.0643 25.4035 37.832 24.0653 35.4488 21.6833L44.4346 12.7018L53.4204 21.6833Z"/>
</mask>
<path d="M53.4204 21.6833C51.0373 24.0653 47.805 25.4035 44.4346 25.4035C41.0643 25.4035 37.832 24.0653 35.4488 21.6833L44.4346 12.7018L53.4204 21.6833Z" fill="#80DE65" stroke="white" mask="url(#path-4-inside-3_6587_48470)"/>
<mask id="path-5-inside-4_6587_48470" fill="white">
<path d="M57.1425 12.7018C57.1425 14.3698 56.8138 16.0215 56.1751 17.5625C55.5365 19.1036 54.6005 20.5038 53.4204 21.6833L44.4346 12.7018H57.1425Z"/>
</mask>
<path d="M57.1425 12.7018C57.1425 14.3698 56.8138 16.0215 56.1751 17.5625C55.5365 19.1036 54.6005 20.5038 53.4204 21.6833L44.4346 12.7018H57.1425Z" fill="#FDCC62" stroke="white" mask="url(#path-5-inside-4_6587_48470)"/>
<path d="M20.862 24.2607C18.5957 24.2607 16.5413 23.7738 14.6987 22.8C12.8772 21.805 11.437 20.4396 10.378 18.7037C9.34019 16.9466 8.82129 14.9673 8.82129 12.7656C8.82129 10.564 9.34019 8.5952 10.378 6.85929C11.437 5.10221 12.8772 3.73677 14.6987 2.76297C16.5413 1.76799 18.6063 1.27051 20.8937 1.27051C22.8211 1.27051 24.5578 1.60922 26.1039 2.28665C27.6712 2.96408 28.9844 3.93788 30.0434 5.20806L26.7393 8.25648C25.2356 6.52057 23.3718 5.65262 21.1479 5.65262C19.7712 5.65262 18.5428 5.95958 17.4626 6.5735C16.3825 7.16625 15.5353 8.00245 14.9211 9.0821C14.328 10.1617 14.0315 11.3896 14.0315 12.7656C14.0315 14.1416 14.328 15.3695 14.9211 16.4491C15.5353 17.5288 16.3825 18.3756 17.4626 18.9895C18.5428 19.5822 19.7712 19.8786 21.1479 19.8786C23.3718 19.8786 25.2356 19.0001 26.7393 17.243L30.0434 20.2914C28.9844 21.5828 27.6712 22.5671 26.1039 23.2446C24.5366 23.922 22.7893 24.2607 20.862 24.2607Z" fill="#FD7465"/>
<path d="M0.0527344 1.27051H5.19941V23.4986H0.0527344V1.27051Z" fill="#80DE65"/>
</svg>
