<svg width="140" height="38" viewBox="0 0 140 38" fill="none" xmlns="http://www.w3.org/2000/svg">
<g id="&#229;&#155;&#190;&#229;&#177;&#130; 2">
<g id="&#229;&#155;&#190;&#229;&#177;&#130; 1">
<path id="Vector" d="M48.0507 27.946V9.75342H53.5411L56.8418 22.1649L60.1134 9.75342H65.6232V27.946H62.2094V13.6258L58.5987 27.946H55.0622L51.4612 13.6258V27.946H48.0507Z" fill="#0056FF"/>
<path id="Vector_2" d="M71.8532 18.7868L68.6914 18.2184C68.9508 17.0879 69.6003 16.085 70.5258 15.386C71.3871 14.7745 72.6789 14.4688 74.4014 14.4688C75.9581 14.4688 77.1164 14.6528 77.8765 15.021C78.5488 15.3067 79.1139 15.7972 79.4913 16.4227C79.8014 16.9911 79.9564 18.0321 79.9564 19.5458L79.9209 23.6151C79.8982 24.4732 79.9545 25.3316 80.0888 26.1794C80.2213 26.7927 80.4318 27.3864 80.7153 27.9461H77.2532C77.1627 27.7168 77.0497 27.3744 76.9302 26.919C76.8721 26.7123 76.8333 26.5735 76.8075 26.5089C76.2553 27.0537 75.6071 27.4917 74.8955 27.8007C74.2095 28.093 73.4708 28.2413 72.7252 28.2367C71.3666 28.2367 70.2965 27.8685 69.5149 27.1322C69.1322 26.7766 68.8297 26.3435 68.6275 25.8618C68.4254 25.3801 68.3282 24.8608 68.3426 24.3385C68.3308 23.6376 68.5154 22.9473 68.8755 22.3459C69.2325 21.7628 69.7523 21.2969 70.3708 21.0056C71.2586 20.6212 72.1904 20.3479 73.1451 20.1917C74.2986 20.0128 75.4328 19.7262 76.533 19.3358V18.9999C76.533 18.3282 76.3682 17.8502 76.0388 17.566C75.7159 17.2785 75.0699 17.1364 74.1624 17.1364C73.6526 17.1066 73.1461 17.2352 72.7123 17.5046C72.2998 17.8325 71.9995 18.2806 71.8532 18.7868V18.7868ZM76.52 21.6192C75.8221 21.8323 75.1139 22.0102 74.3982 22.1521C73.7377 22.2556 73.0971 22.4604 72.4991 22.7592C72.2907 22.8899 72.1188 23.0713 71.9996 23.2866C71.8804 23.5018 71.8178 23.7437 71.8177 23.9897C71.8159 24.2271 71.8635 24.4622 71.9575 24.6801C72.0514 24.8981 72.1897 25.0941 72.3635 25.2558C72.5475 25.433 72.7653 25.5715 73.0038 25.6631C73.2424 25.7546 73.4969 25.7973 73.7522 25.7887C74.404 25.7812 75.036 25.5638 75.5544 25.1686C75.9512 24.8855 76.2431 24.4789 76.3844 24.0124C76.4996 23.4539 76.5451 22.8832 76.52 22.3136V21.6192Z" fill="#0056FF"/>
<path id="Vector_3" d="M86.7225 27.9459H83.2345V14.7657H86.4641V16.6389C87.0196 15.754 87.517 15.1726 87.9627 14.8916C88.4128 14.6077 88.9356 14.4607 89.4677 14.4686C90.2779 14.4694 91.0722 14.6929 91.764 15.1145L90.6853 18.1536C90.2061 17.809 89.6374 17.6105 89.0479 17.5819C88.6002 17.5692 88.162 17.7118 87.8077 17.9856C87.396 18.3776 87.1161 18.8877 87.0067 19.4454C86.8086 20.1495 86.7107 21.6222 86.7128 23.8636L86.7225 27.9459Z" fill="#0056FF"/>
<path id="Vector_4" d="M92.0449 24.1865L95.5459 23.6536C95.6516 24.2603 95.9727 24.8084 96.4502 25.1974C97.0109 25.5815 97.6836 25.7679 98.3621 25.7271C99.2632 25.7271 99.9414 25.5591 100.397 25.2297C100.544 25.124 100.663 24.984 100.743 24.8219C100.824 24.6598 100.863 24.4805 100.859 24.2996C100.863 24.0602 100.773 23.8286 100.61 23.6536C100.26 23.4138 99.8603 23.257 99.4408 23.195C96.6267 22.5749 94.8439 22.0076 94.0925 21.493C93.5974 21.1766 93.1931 20.737 92.9191 20.2172C92.645 19.6975 92.5107 19.1154 92.5294 18.5282C92.5227 17.977 92.641 17.4314 92.8754 16.9325C93.1097 16.4335 93.4541 15.9942 93.8826 15.6473C94.7847 14.8722 96.1843 14.4836 98.0811 14.4814C99.8833 14.4814 101.224 14.7753 102.102 15.3631C103.001 15.9844 103.645 16.9103 103.914 17.9695L100.623 18.5766C100.508 18.1005 100.224 17.6819 99.8251 17.3978C99.318 17.0957 98.7318 16.9529 98.1425 16.9876C97.222 16.9876 96.5664 17.1168 96.1692 17.372C96.048 17.446 95.9478 17.55 95.8783 17.6738C95.8087 17.7976 95.7721 17.9372 95.7719 18.0793C95.7715 18.2071 95.8029 18.3331 95.8632 18.4458C95.9235 18.5586 96.0109 18.6546 96.1175 18.7252C96.434 18.9577 97.5203 19.2807 99.3762 19.6941C101.232 20.1075 102.529 20.6242 103.268 21.2443C103.632 21.5652 103.92 21.9642 104.109 22.4115C104.298 22.8588 104.384 23.343 104.36 23.828C104.358 24.4276 104.221 25.0191 103.959 25.5583C103.697 26.0974 103.316 26.5703 102.845 26.9414C101.837 27.8027 100.344 28.2333 98.3653 28.2333C96.5697 28.2333 95.1486 27.8694 94.1022 27.1417C93.0761 26.4434 92.3435 25.3912 92.0449 24.1865V24.1865Z" fill="#0056FF"/>
<path id="Vector_5" d="M107.45 9.75351H114.723C115.803 9.73008 116.883 9.78946 117.953 9.93114C118.633 10.0419 119.281 10.2986 119.852 10.6836C120.425 11.0808 120.903 11.6004 121.251 12.2048C121.626 12.8505 121.819 13.5862 121.809 14.3331C121.815 15.1666 121.572 15.9829 121.112 16.6779C120.662 17.3879 120.012 17.9496 119.245 18.2927C120.254 18.5507 121.152 19.1299 121.803 19.943C122.4 20.7306 122.714 21.6967 122.694 22.685C122.692 23.5239 122.495 24.3509 122.119 25.1008C121.761 25.8494 121.217 26.4941 120.54 26.974C119.807 27.4671 118.96 27.764 118.079 27.8363C117.465 27.903 115.988 27.9439 113.648 27.959H107.45V9.75351ZM111.126 12.7797V16.9782H113.532C114.962 16.9782 115.854 16.9588 116.199 16.9169C116.754 16.8779 117.278 16.6499 117.685 16.2709C117.866 16.0826 118.007 15.8597 118.1 15.6155C118.193 15.3713 118.235 15.1109 118.224 14.8499C118.246 14.3503 118.08 13.8607 117.759 13.4773C117.394 13.0971 116.9 12.8667 116.374 12.8314C116.01 12.7883 114.964 12.7668 113.235 12.7668L111.126 12.7797ZM111.126 20.0173V24.8682H114.526C115.368 24.8951 116.21 24.8583 117.046 24.7584C117.56 24.6758 118.031 24.4193 118.379 24.0318C118.739 23.5988 118.922 23.0466 118.893 22.4848C118.908 21.9918 118.769 21.5063 118.496 21.096C118.214 20.7018 117.812 20.4103 117.349 20.266C116.843 20.1045 115.757 20.0238 114.09 20.0238L111.126 20.0173Z" fill="#0056FF"/>
<path id="Vector_6" d="M125.769 12.9796V9.75H129.257V12.9796H125.769ZM125.769 27.9458V14.7656H129.257V27.9458H125.769Z" fill="#0056FF"/>
<path id="Vector_7" d="M138.875 14.7657V17.5465H136.491V22.8592C136.469 23.4866 136.492 24.1147 136.559 24.7389C136.609 24.921 136.724 25.0785 136.882 25.1813C137.055 25.2984 137.261 25.3582 137.47 25.3525C137.952 25.3207 138.427 25.2116 138.875 25.0295L139.172 27.7328C138.299 28.0935 137.361 28.2715 136.417 28.256C135.834 28.2621 135.255 28.1523 134.715 27.933C134.275 27.7693 133.89 27.485 133.604 27.1127C133.341 26.7017 133.173 26.2371 133.113 25.753C133.017 24.9375 132.98 24.1161 133.003 23.2952V17.5465H131.388V14.7657H133.003V12.1465L136.504 10.1118V14.7657H138.875Z" fill="#0056FF"/>
<path id="Vector_8" d="M19 38C29.4934 38 38 29.4934 38 19C38 8.50659 29.4934 0 19 0C8.50659 0 0 8.50659 0 19C0 29.4934 8.50659 38 19 38Z" fill="#0056FF"/>
<path id="Vector_9" d="M41.375 6.98535H33.7434L19.3618 19.9039C19.2859 19.9723 19.1903 20.0149 19.0887 20.0253C18.9871 20.0358 18.8848 20.0136 18.7966 19.9621L11.8658 15.9702C11.7776 15.9187 11.6753 15.8965 11.5737 15.907C11.4721 15.9174 11.3764 15.9599 11.3006 16.0284L1.04968 25.2296C1.69056 27.0692 2.61104 28.799 3.77873 30.3583L12.0595 22.9301C12.1356 22.861 12.2319 22.818 12.3342 22.8075C12.4365 22.7971 12.5394 22.8197 12.628 22.872L19.5394 26.88C19.6299 26.9292 19.7336 26.9485 19.8357 26.9352C19.9378 26.9218 20.033 26.8765 20.1078 26.8057L36.6501 11.9493L41.585 7.51501C41.6228 7.47038 41.6478 7.41631 41.6572 7.35858C41.6667 7.30085 41.6603 7.24163 41.6388 7.18725C41.6172 7.13286 41.5813 7.08536 41.5348 7.0498C41.4884 7.01424 41.4332 6.99196 41.375 6.98535Z" fill="#2DD2FF"/>
</g>
</g>
</svg>
