<svg width="168" height="167" viewBox="0 0 168 167" fill="none" xmlns="http://www.w3.org/2000/svg">
    <path opacity="0.6" fill-rule="evenodd" clip-rule="evenodd" d="M66.117 4.79458C69.4291 2.45707 74 4.82579 74 8.87968V60.5161C74 64.0072 70.5131 66.4236 67.2444 65.1978L19.0056 47.1082C15.2154 45.6869 14.597 40.5859 17.9378 38.3L41 22.5208L66.117 4.79458ZM101.727 4.63788C98.4407 2.33828 93.9203 4.65034 93.8613 8.6611L93.1072 59.9421C93.0556 63.4533 96.5444 65.9224 99.8385 64.7061L148.84 46.6131C152.664 45.2013 153.283 40.0532 149.902 37.7758L128 23.0208L101.727 4.63788ZM106.896 82.9679C103.721 84.0916 102.542 87.9699 104.555 90.6703L137.448 134.785C139.829 137.978 144.804 137.242 146.159 133.497L156.877 103.86C156.959 103.634 157.024 103.403 157.073 103.168L163.714 70.9081C164.499 67.0955 160.818 63.8878 157.149 65.1863L106.896 82.9679ZM117.588 155.017C121.594 154.895 123.836 150.345 121.491 147.094L87.1749 99.5191C85.1454 96.7054 80.9372 96.7632 78.9857 99.6316L46.6276 147.194C44.4074 150.458 46.6665 154.886 50.6117 155.004L84.5 156.021L117.588 155.017ZM62.1547 91.5301C64.0912 88.8616 62.9599 85.0821 59.8757 83.9164L11.3881 65.5904C7.62281 64.1673 3.80514 67.5498 4.76441 71.4591L13 105.021L21.9997 133.303C23.2432 137.21 28.4027 138.042 30.8111 134.723L62.1547 91.5301Z" fill="url(#paint0_radial_4_289)"/>
    <g filter="url(#filter0_d_4_289)">
        <circle cx="24" cy="24" r="24" transform="matrix(-1 0 0 1 108 59.2311)" fill="#FFC234"/>
    </g>
    <path fill-rule="evenodd" clip-rule="evenodd" d="M74 4.85931C74 1.86442 71.3801 -0.47038 68.4364 0.0811002C44.8482 4.50021 24.7341 18.7785 12.5354 38.4747C10.951 41.0328 12.2025 44.3325 15.0167 45.3977L23.695 48.6825C25.9869 49.55 28.5527 48.6159 29.914 46.5782C39.0473 32.908 53.2256 22.8948 69.7868 19.2007C72.1945 18.6637 74 16.5862 74 14.1194V4.85931ZM144.16 48.5658C141.884 49.3991 139.354 48.4671 138.003 46.4548C128.867 32.8477 114.724 22.8837 98.2131 19.2007C95.8055 18.6637 94 16.5862 94 14.1194V4.8593C94 1.86441 96.6199 -0.470384 99.5635 0.0810947C123.132 4.49642 143.232 18.7541 155.433 38.4243C157.031 40.9998 155.751 44.322 152.905 45.364L144.16 48.5658ZM134.039 130.213C132.634 128.279 132.811 125.633 134.325 123.783C143.497 112.578 149 98.2525 149 82.6421C149 79.3446 148.754 76.1045 148.281 72.939C147.91 70.4651 149.241 68.0037 151.59 67.1437L160.249 63.9734C163.035 62.9532 166.105 64.5694 166.637 67.4887C167.532 72.4039 168 77.4684 168 82.6421C168 103.974 160.049 123.448 146.948 138.263C144.922 140.554 141.335 140.254 139.537 137.78L134.039 130.213ZM49.4706 142.891C50.9639 140.836 53.7529 140.247 56.0459 141.341C64.5136 145.381 73.9927 147.642 84 147.642C94.0073 147.642 103.486 145.381 111.954 141.341C114.247 140.247 117.036 140.836 118.529 142.891L123.925 150.317C125.65 152.692 124.973 156.048 122.363 157.39C110.863 163.304 97.8214 166.642 84 166.642C70.1786 166.642 57.1369 163.304 45.6371 157.39C43.0268 156.048 42.3498 152.692 44.0751 150.317L49.4706 142.891ZM16.4404 67.3214C18.755 68.1974 20.0592 70.6327 19.6982 73.081C19.2383 76.2014 19 79.3939 19 82.6421C19 98.2525 24.5029 112.578 33.6746 123.783C35.1887 125.633 35.3658 128.279 33.9607 130.213L28.463 137.78C26.6653 140.254 23.0779 140.554 21.052 138.263C7.95139 123.448 0 103.974 0 82.6421C0 77.4875 0.464284 72.4414 1.35331 67.5432C1.88709 64.6023 4.99259 62.9882 7.78799 64.0463L16.4404 67.3214Z" fill="#FF8D2F"/>
    <defs>
        <filter id="filter0_d_4_289" x="12" y="11.2311" width="144" height="144" filterUnits="userSpaceOnUse" color-interpolation-filters="sRGB">
            <feFlood flood-opacity="0" result="BackgroundImageFix"/>
            <feColorMatrix in="SourceAlpha" type="matrix" values="0 0 0 0 0 0 0 0 0 0 0 0 0 0 0 0 0 0 127 0" result="hardAlpha"/>
            <feOffset/>
            <feGaussianBlur stdDeviation="24"/>
            <feComposite in2="hardAlpha" operator="out"/>
            <feColorMatrix type="matrix" values="0 0 0 0 1 0 0 0 0 0.698039 0 0 0 0 0 0 0 0 1 0"/>
            <feBlend mode="normal" in2="BackgroundImageFix" result="effect1_dropShadow_4_289"/>
            <feBlend mode="normal" in="SourceGraphic" in2="effect1_dropShadow_4_289" result="shape"/>
        </filter>
        <radialGradient id="paint0_radial_4_289" cx="0" cy="0" r="1" gradientUnits="userSpaceOnUse" gradientTransform="translate(84 82.7311) rotate(-90) scale(62 67.268)">
            <stop stop-color="#FFB200"/>
            <stop offset="1" stop-color="#110C00"/>
        </radialGradient>
    </defs>
</svg>
