<svg width="384" height="384" viewBox="0 0 384 384" fill="none" xmlns="http://www.w3.org/2000/svg">
<g clip-path="url(#clip0_107_1768)">
<rect width="384" height="384" rx="96" fill="white"/>
<path d="M196.026 312.608C176.362 312.608 160.124 309.947 147.312 304.624C134.5 299.302 124.221 292.797 116.474 285.11C109.026 277.127 103.365 269.291 99.4915 261.604C95.9161 253.62 93.5325 246.968 92.3408 241.646C91.4469 236.323 91 233.662 91 233.662H154.016C154.016 233.662 154.463 235.141 155.356 238.097C156.25 241.054 158.187 244.454 161.166 248.298C164.444 252.142 169.062 255.542 175.021 258.499C180.98 261.456 189.024 262.934 199.155 262.934C211.668 262.934 220.16 260.421 224.629 255.394C229.396 250.368 231.78 245.342 231.78 240.315C231.78 229.671 222.99 222.574 205.411 219.026L173.233 212.817C159.528 210.156 146.567 206.312 134.351 201.286C122.433 195.964 112.75 188.72 105.301 179.554C98.1507 170.092 94.5754 157.969 94.5754 143.186C94.5754 128.993 98.2997 116.279 105.748 105.043C113.197 93.8078 123.774 84.9376 137.48 78.4327C151.483 71.9278 168.168 68.6754 187.535 68.6754C205.709 68.6754 220.756 71.1887 232.674 76.2151C244.889 80.9459 254.573 87.0073 261.723 94.3992C268.874 101.495 274.237 108.739 277.812 116.131C281.388 123.228 283.622 129.289 284.516 134.315C285.708 139.046 286.304 141.412 286.304 141.412H225.523C225.523 141.412 224.629 139.49 222.841 135.646C221.054 131.506 217.329 127.515 211.668 123.671C206.305 119.532 197.963 117.462 186.641 117.462C175.021 117.462 166.976 119.827 162.507 124.558C158.038 128.993 155.803 133.724 155.803 138.751C155.803 144.664 158.336 149.099 163.401 152.056C168.764 155.013 175.617 157.378 183.959 159.152L214.797 165.361C237.441 169.796 256.062 177.632 270.662 188.867C285.261 199.807 292.561 215.774 292.561 236.767C292.561 250.959 288.836 263.821 281.388 275.353C273.939 286.884 263.064 296.05 248.763 302.85C234.461 309.355 216.882 312.608 196.026 312.608Z" fill="black"/>
<rect x="146.981" y="42" width="22.3956" height="288.924" fill="#090909"/>
<rect x="146.981" y="297.551" width="22.3956" height="44.4499" fill="#090909"/>
<rect x="202.987" y="42" width="22.3956" height="44.4499" fill="#090909"/>
<rect x="202.987" y="297.551" width="22.3956" height="44.4499" fill="#090909"/>
</g>
<defs>
<clipPath id="clip0_107_1768">
<rect width="384" height="384" fill="white"/>
</clipPath>
</defs>
</svg>
